<mxfile host="Electron" modified="2024-04-09T20:47:24.379Z" agent="Mozilla/5.0 (Windows NT 10.0; Win64; x64) AppleWebKit/537.36 (KHTML, like Gecko) draw.io/23.1.5 Chrome/120.0.6099.109 Electron/28.1.0 Safari/537.36" etag="NYMDy2N-tkGSeJ06pB9E" version="23.1.5" type="device">
  <diagram id="C5RBs43oDa-KdzZeNtuy" name="Page-1">
    <mxGraphModel dx="875" dy="524" grid="1" gridSize="10" guides="1" tooltips="1" connect="1" arrows="1" fold="1" page="1" pageScale="1" pageWidth="827" pageHeight="1169" math="0" shadow="0">
      <root>
        <mxCell id="WIyWlLk6GJQsqaUBKTNV-0" />
        <mxCell id="WIyWlLk6GJQsqaUBKTNV-1" parent="WIyWlLk6GJQsqaUBKTNV-0" />
        <mxCell id="9PZFIQGD-wGF1ivUP2-p-7" style="edgeStyle=orthogonalEdgeStyle;rounded=0;orthogonalLoop=1;jettySize=auto;html=1;entryX=0;entryY=0.5;entryDx=0;entryDy=0;" edge="1" parent="WIyWlLk6GJQsqaUBKTNV-1" source="9PZFIQGD-wGF1ivUP2-p-0" target="9PZFIQGD-wGF1ivUP2-p-2">
          <mxGeometry relative="1" as="geometry" />
        </mxCell>
        <mxCell id="9PZFIQGD-wGF1ivUP2-p-0" value="Frontend" style="rounded=1;whiteSpace=wrap;html=1;verticalAlign=top;fontSize=20;" vertex="1" parent="WIyWlLk6GJQsqaUBKTNV-1">
          <mxGeometry x="34" y="150" width="220" height="130" as="geometry" />
        </mxCell>
        <mxCell id="9PZFIQGD-wGF1ivUP2-p-1" value="" style="shape=image;verticalLabelPosition=bottom;labelBackgroundColor=default;verticalAlign=top;aspect=fixed;imageAspect=0;image=https://as1.ftcdn.net/v2/jpg/03/21/24/30/1000_F_321243084_GstfWflk1eTLlzUdRZ5mjoP5IG1iCc8J.jpg;clipPath=inset(14.29% 10% 21.43% 9.33%);" vertex="1" parent="WIyWlLk6GJQsqaUBKTNV-1">
          <mxGeometry x="54" y="190" width="180" height="80.33" as="geometry" />
        </mxCell>
        <mxCell id="9PZFIQGD-wGF1ivUP2-p-18" style="edgeStyle=orthogonalEdgeStyle;rounded=0;orthogonalLoop=1;jettySize=auto;html=1;entryX=1;entryY=0.5;entryDx=0;entryDy=0;" edge="1" parent="WIyWlLk6GJQsqaUBKTNV-1" source="9PZFIQGD-wGF1ivUP2-p-2" target="9PZFIQGD-wGF1ivUP2-p-0">
          <mxGeometry relative="1" as="geometry" />
        </mxCell>
        <mxCell id="9PZFIQGD-wGF1ivUP2-p-2" value="Backend" style="rounded=1;whiteSpace=wrap;html=1;verticalAlign=top;fontSize=20;" vertex="1" parent="WIyWlLk6GJQsqaUBKTNV-1">
          <mxGeometry x="324" y="150" width="220" height="130" as="geometry" />
        </mxCell>
        <mxCell id="9PZFIQGD-wGF1ivUP2-p-3" value="" style="shape=image;verticalLabelPosition=bottom;labelBackgroundColor=default;verticalAlign=top;aspect=fixed;imageAspect=0;image=https://upload.wikimedia.org/wikipedia/commons/thumb/4/44/Spring_Framework_Logo_2018.svg/1200px-Spring_Framework_Logo_2018.svg.png;clipPath=inset(0% 3.33% 0% 0%);" vertex="1" parent="WIyWlLk6GJQsqaUBKTNV-1">
          <mxGeometry x="329" y="202.29000000000002" width="210" height="55.75862068965517" as="geometry" />
        </mxCell>
        <mxCell id="9PZFIQGD-wGF1ivUP2-p-11" style="edgeStyle=orthogonalEdgeStyle;rounded=0;orthogonalLoop=1;jettySize=auto;html=1;entryX=0.5;entryY=1;entryDx=0;entryDy=0;" edge="1" parent="WIyWlLk6GJQsqaUBKTNV-1" source="9PZFIQGD-wGF1ivUP2-p-5" target="9PZFIQGD-wGF1ivUP2-p-2">
          <mxGeometry relative="1" as="geometry" />
        </mxCell>
        <mxCell id="9PZFIQGD-wGF1ivUP2-p-5" value="Database" style="rounded=1;whiteSpace=wrap;html=1;verticalAlign=top;fontSize=20;" vertex="1" parent="WIyWlLk6GJQsqaUBKTNV-1">
          <mxGeometry x="354" y="340" width="160" height="130" as="geometry" />
        </mxCell>
        <mxCell id="9PZFIQGD-wGF1ivUP2-p-10" value="" style="shape=image;verticalLabelPosition=bottom;labelBackgroundColor=default;verticalAlign=top;aspect=fixed;imageAspect=0;image=https://raw.githubusercontent.com/h2database/h2database/master/h2/src/docsrc/images/h2-logo-2.png;" vertex="1" parent="WIyWlLk6GJQsqaUBKTNV-1">
          <mxGeometry x="357.25" y="380" width="153.5" height="79.95" as="geometry" />
        </mxCell>
        <mxCell id="9PZFIQGD-wGF1ivUP2-p-17" style="edgeStyle=orthogonalEdgeStyle;rounded=0;orthogonalLoop=1;jettySize=auto;html=1;entryX=0.5;entryY=1;entryDx=0;entryDy=0;" edge="1" parent="WIyWlLk6GJQsqaUBKTNV-1" source="9PZFIQGD-wGF1ivUP2-p-12" target="9PZFIQGD-wGF1ivUP2-p-0">
          <mxGeometry relative="1" as="geometry" />
        </mxCell>
        <mxCell id="9PZFIQGD-wGF1ivUP2-p-12" value="Exchange API" style="rounded=1;whiteSpace=wrap;html=1;verticalAlign=top;fontSize=20;" vertex="1" parent="WIyWlLk6GJQsqaUBKTNV-1">
          <mxGeometry x="64" y="340" width="160" height="130" as="geometry" />
        </mxCell>
        <mxCell id="9PZFIQGD-wGF1ivUP2-p-16" value="" style="shape=image;verticalLabelPosition=bottom;labelBackgroundColor=default;verticalAlign=top;aspect=fixed;imageAspect=0;image=data:image/png,iVBORw0KGgoAAAANSUhEUgAAAlEAAAJMCAYAAADaNPObAAAgAElEQVR4Aey9h5sUVfb///knvr/dBVwdcEBQWEBcBFFEMe+a1pzWgK5pFYxrwhwWwxrWtOasgGLAAKgYQEFBggRRCZKZ6arqnHvev+ecrlPMFFPT3TOd+8zzvJ47Fbq6+tb7nnrXqVu3/g/6pzWgNaA1oDWgNaA1oDWgNVBwDfxfwZ/QD2gNaA1oDWgNaA1oDWgNaA1ATZSKQGtAa0BrQGtAa0BrQGugGzWgJqoblaYf0RrQGtAa0BrQGtAa0BpQE6Ua0BrQGtAa0BrQGtAa0BroRg2oiepGpelHtAa0BrQGtAa0BrQGtAbURKkGtAa0BrQGtAa0BrQGtAa6UQNqorpRafoRrQGtAa0BrQGtAa0BrQE1UXWogba2NnRFHf5k/UlaA1oDWgNaA1oDZa8BNVFlr/LSf2FXBoqW6Z/WgNaA1oDWgNaA1kDPa0BNVM/rsOJbyGWa3MsrvsO6A1oDWgNaA1oDWgN1UANqourgILpNUq7pOvjJ+hO0BrQGtAa0BrQGKl4DaqIqfgh0B7QGtAa0BrQGtAa0BmqxBtRE1eJR033WGtAa0BrQGtAa0BqoeA2oiar4Ici9A7luz8ny3FvSNbQGtAa0BrQGtAa0BopVA2qiilWTJdyOmKRcZQl3QTetNaA1oDWgNaA1oDXgqgE1Ua4KaYhJGuZA0TpQDagGVAPl00BDnFwa70eqiWq8Y16+oKEBWutaNaAaUA1kNdCI55oG+M1qourpIEuwymQAIp3uQFs6DSaVQpuidaAaUA2oBgrWAFIpEBJDd8ZZirl27KX4K/G4ns4x+lt2qQE1UbtUSQ3PkEarJsoJcBLotNwZ9LUutC5UA93XgJqoGj5HlmDX1USVoFJzbVI6iDtXKmJ+pJQNyLRdtmUyIDLpdJZkEhkiHs8SiSATiaAtFMoSCKAtEEDG789iWchYFtKtrV2SaW2FonWgGlANqAZ21UB6RwuITIuNz4eMz4c2y8oicTcUQoZicSTKpKNREE78tuO4xHV36T4/OOcNOT9oWRU1oCaqAofBaQwuk+Q0Gtkn13JpZE4jVBOlZk8Nr2pANVBWDaiJkhOUllQDaqJKqIMMZY3o1pr9J9NSOqbJuf1m31On++rpTLb/EvVjsu+/Z2IxMHQ1Q1c1fj+Tam0Fs207Utu2I71lC5PasAHMmjVIrVmDxLJlTHzZMhAyraXWhWpANaAayFMDy5cjQfz4I5NcsQLMqlVIrlqF1K+/ZvltI1LE1q1McscOECnTYtKhEAgnricSyCQSaEsms9hxn/u3tu9jJRfXcmLRsqI1oCaqhNXvmCX7O2RaSjVReQYtNXxqeFUDqoFq0YCaqBKeNWtv02qiinjMnNt0sk3XFYM8HZeJJ0C0BYNMutUHZutWpOmqZdMmJrlhA5hff0WSWLosy8qVSBKLFmeZNx/JefMRn/tFlk8/RfzTTxH96OMsb7+D6NvvIPTSy1lefhmhl19G5OVXmNDLr0DROlANqAZUA3lo4JVXEXrlVYRfez3L628gTLz1FhN57z0Q0Vmzsnw+F9HP5yL21VdM/NsFYBYvRnzx4p0ZrZ9+QpKw4z1nsX7biHRLSxb7zgP1e2XszNUumSo5/2hZlhpQE1XEalYTlUcAUsOmhlU1oBqoZQ2oiSriWbP2N6UmqhvHUMySu/TclJ2Ron5M3JfJMJA2DKTWb2Ciy5aBCM79ggm8/TaY519A4PkX4H/4Eca6824wd90D66574L/1NiZ0w00gAlddy4SunAQicPkVTOiyK0AE/3Ep47/oYhDWhYrWgWpANaAaKEgD/7gEVjv8l14Owrr8iixXToLVDv+kq8Fcez38116PwPU3ZrnlVgRuuRXBu+7J8shjCD7yGMIvv8JEZ84EEf/mWyaxciWI5NatTJqetKYnAuNxRh448joPyfnKa7nO714NqInqRr2JGN2l56bURKlhU8OqGlAN1IcG2hkoMlNqojzPfA2xQE1UNw6z2zw5Qw+kUsikUogHAky0tRVEfONGJrlmDYjIwoVZZs1GZNZsWK+8yvjvfxBEYNLVjHXyqSCM/UZl2a0ZBtF7T8bs0wwi9Me9GH/vZhCBPv0ZmZblwd0GgLB268/I52V7WmbrVetB60E1oBoolQbMPgPQKfsdAHO/A2Cdcx4TuHkyiPATTzKRadNBSN/XxPeLQHA/qp9+Qvy33xg57yRCIRDpeJyR85RTtrWBzmX617MaUBPVjfpTE6UBtlQBVrer2lIN1LcGOjVQZKzURHXjbFz5j6iJ6sYxcIYosD8r4zglTRNE9JdfmeC8+SBC78xgAv95GIR5622MdfU1IHz/uJixzjobROvRf2W2jxkLYsc+wxlfnz1BSAbJ6jsI7TGa9wER6D+EsZr3ATNwKKyBQ2HsNYTxDfwTCIPmKVoHqgHVgGqgbBowBw0H0/9PMNvTtDdMYvxRjHXiKSD8F1zEBC6/EkTwxpuY0L/vB/PkUwg9+RQCb01lgl98ASKyajWTaG0FQWNQ8ThU9psvunHq0490UgNqojqplFyz1ESp+VLzqRpQDagGuqMBNVG5zrC1tVxNVAHHK51MgkiEw0zcNEHE1q1jEgsXgoi+9z4TfPAhENLx0Dz8aBDWmLFMYMhwEEbfAYy1ezOIll59mR1/aALh678PY+0zHIQ5aCgjGaWWfoPQHslEBZoGoT2+3zWB0NsF9X27QI+vHl/VQBk10LQXjALgbBNlnNpnoTr7XzJTdmn07g/G/i66u0CYBx3K+M+fACJ4731MZOo0EPEFC7KsXYv42rWItrQwch6T85r0lXIGgS7g3NjIq6qJKuDoi9hEfGqiyhio7M70enLQOlcNqAaqSgMFGCgyW2qiCjjp1sCqaqIKOEipQABE9NdfmcC8eSCC06ZneehhBB96GIGbbmZkLBHjsCNBmKMOzPKn/WASf+zPSF8n/x57gWjt3a8DslzWlz5Rvl79QLT+oS/T8vsmEBJgZD15Gk/my+dkWks9KakGVAOqgfJowLNjufupPXcmqmkQjPbYmSlfr2YwY8bBN2YcjNPPYqzrbwARePyJLHafKf/cuSBCK1YwiZYWEOlEIks6jXQ6ze99pa4r8iBVAafKhlpVTVQBh1tNVHmCjAZzrWfVgGqgXjWgJqqAk24NrKomqpODJLftkoEAmG3bkCSWL2eiH8wEEXzsv4yMTisZJ+OAsWBkXCcp+w6EQdjTkmGSzJPZbxCI1qYBTMseA9AeWV8ySZJpklLmSykZKpmWTJVM12uQ0t+lJ2DVgGqgWjWQt4lyZaYkC+UbOAztae3VjE4ZNhKtw0bCOP5vjDnhIhDWXXcz4TffBBH9dgHjjDPl8yHq8yEVjzMyErr7gapOTp0NOUtNVCeHXU2UBuBqDcC6X6pN1UBta0BNVCcn3RqepSaq3cFLRaMgYtu2MZEffwQRnj2bCT75FAj/5NsYi94/d9HFMI87kTH2HwNmwGAYAwbzmE6UPZLMk5SSOZJSMkPuaZkvQdNZbo8XJduTTJaUkrGS5dKXypmvnbSdfmNSt1rW9olJj58ev0bRgK93f3SgeQh87WkaBB8h60nmaswh8I05BOZZf2fcfaaCMz8EEVqyhIlu3gxCzotyqtSMlNREtlQT1a4+RCxqojQgN0pA1t+pWlcN1JYGHHMkJqm9gaL/1US1O6uX/t+GNlHyNEIqGAQh94TDCxaCCL3xJuO/9z4Q5lnnME7fpyEjYBCuvk6SAZLMj5QyX56Wk1KCmJNpsp+6c8+X5ZJxku3JtPt7JAMlpbNcM1GaiVINqAZUAzWpgV1MlJgpMU9epkqWDxsJH/WVOvTILCefDuPk02Fd9y8m+NzzIMLz5jPRjRtBJINBJpNMgtCn9jQT5TzSqSaqtq7ExFxqqcdNNaAaaDQNqIkqfXapkG9oyEyUvNU66TNAxH75lQl//jmIwHPPM/5rrwfh9Hmy+zpJBkgyO+7Sq1FLJsldyvqSmZK+ULKeTEspmSfJMEkp+yXLpXTPz3d/Zb+01BOVakA1oBqoFQ3IyOb2uFLNQ2AQ9hhTvj0Gghk4FD5i5BjGOP4kENbV12V57HFYjz2OwEcfM9FVq0HIeVPexdfofaTURKmJqsmUtgb0Wgnoup+qVdVAeTWgJqqQTFJP120oE5WKREAkW1qYxIoVICIffcQEHnwIhHnZPxnfgeNASCbHq8w3syOZJSmlYUmGSTJRUgZ23wuETMt68m49yUDJ98v+yXJ3JkrWc5eyH1pqsFcNqAZUA7WuAdtEybv2pJRMlIxw7i6bB8NHjDqYMc86F4T/jruYyPS3QSSWLmWS27eDSEejTCaVAtFofaXURKmJ0kyUdrBVDagGVAN1owE1UT3NLhXy+YYwUelIBERi61YmtnQZiMiMd5nglPtBmOecxxiHHw3CN2RElqa94CPs8ZlylV5XcpKBklLWk5HFpTR+3xdEoE9/RtaTTNSOPzSBkP1wZ55kWpZLhkqm3aVsX8tavwLV/VcNqwZUAx4myv2uPXcmSqZ33xs+Yt8DGKev1LXXwbr2OoRff4NxRjrftAnxTZuQDoeZtnQaRKP8qYma8S4bKDVRGnw1+KoGVAOqgdrXgJqochq4ujZRkoFKbd0KIj5/PhN+400QMvK4edoZIHzDR2YZNBQ+Is/Mk3u9XI1QMkqe5e+a4PtdE6xeezKynmSqJNMkGSbp+yT74Z7ONT/X/upyPbGoBlQDqoFa0UCBJkqe1pNM1B8GwEdIRkqe4ht3GHzjDuNsFGWkQs8+x8S/+hpEYsMGJh0KgZCMVL33kVITNfk2NlBqomolQOh+6slMNaAaUA14a0BNlGaielgDkoFKbtgAIjZ/PhOmUVifex7+a69jzKOOAWGMHJ2laQCMpgE7M1DSF0rKHmamJKMkpTQC6SMlpb93M4jgbgMYmS/rS2bJ2n0ACJn2ykzJcq9StqulBmbVgGpANVDrGijQREkGSjJSUsp8KZv3hq95bxiHH8WYl14GIvTU00xk7lwQifXrGRnEut4zUnWZiVIT1Q90S8/LNLnna9Cs9aCp+68aVg2oBkQDaqJ6mIcp6ON1ZaIykQgIyUA5faDsDFTg8itAGOOPyNK7LwyC3DVhT7tNBj+ZV8DTee7PezVuyTBJKetJXyh5Os+9XLbvNU6UV58oyVTJ56WU79VSgpCWqgXVgGqgVjXQTRMlGSfJRElpv8tV7qD49ugPZuRo+EaOhnnhP5jAY4+BiH72GRP/9VcQkpGScaQKcig1sLKaKDVROj5M3YwPU6tBX/dbDYtqoHgaUBNVTu9VFyYqE42CSP62kYl+8SWI4JNPMdZl/wRhjD8yS6Enzaa9YBCFfi7P9d2ZJvkemS+lzJdS5ktGyauU9bXUQK0aUA2oBlQDRdXAmHEwxoyDdfGlTPDxx0FIRkr6SEk3m7ZMBkS9/KmJysfoqIkqmYEsamPO51jqOnosVQOqAdVA8TSgJqp2/WBbPA4iuWULE/vmWxDBZ59jzMuvAGGMPTRL8z4wiEIbUIlNVMH749p/rwyUzO/p9vXzeuWqGlANqAZUA11qwG2m7DtBsS+/BJHYuJGpt4xUTWei1ERlG7WYJa+yS+G7DJmuq4FSNaAaUA2oBgrWgJqo2slISS//1I4dIGKLFjOhV14FYU26mvEdOA6Ma3yngsWhRqPw7J3WmdaZakA1oBpoPA2ImbL7IsvI5tF580HInaNMPA6i1kc0r8lMlJoovUpSI6waUA2oBlQDVagBNVHVm5ES85Q0TBDx5cuZ0NRpIKwbbmTkKbxdbm/ZI49rw6vChqdXrI13xarHXI+5aqB+NWD3RfZPuhpE6IUXmcT334NI+nxMJpkEUat/NZWJUhOl5kcNsGpANaAaUA3UgAbURFWPL5RxJVLhMIjYTz8xkZkfgvDffS9jHHcCiF0yUNonqn6vdvRKVo+takA1oBqoPg3YT7WbxxwLwn/9DUx46jQQ0TVrmGQoBCKTyTDV4zzy25OayESpiaqBqw4NYtUXxPSY6DFRDagGKqUBNVH5ubByrJWKxUDEN29mQnM+BRF45FHGPOc8EL5BQ7O4Mk/uzJSmgtWUqQZUA6oB1YBqoAwaGDYSxrCRME88mQncdx+I0KefMbHNm0Gk43GmHJ6imN9RE5koNVFlEHqlrlb0e/VKWTWgGlAN1K8G1EQV07N1vi2vcSLSySSIeEsLE126FETgmWcZ68pJIHxjD82SIwMlGSm9+lBTphpQDagGVAOqgTJooHlvGMSYgxnzHxeDCDzzDBP9/nsQCZ+PaUunQdTKX1VkotRElUHIeqVXv1d6emz12KoGVAPVqgE1UaX3g2KipEylUiBifj8T/eknMB99hOhHHyFw082MccJJIHxDRmSxx4GSjJNXqVcfatpUA6oB1YBqQDVQBg00DYBBjNg/i/0UvXX9DSDC06Yx8VWrQaRDIaZWMlJVlYlSE1UGQVfr1Yrul15JqwZUA6qB+tOAmqjSZ6Kcb2hrAwj7L9bSAiIwZ06WO+5C4I67YJxxFuPbb38wTQPgI/r0zQu9+lCzphpQDagGVAOqgQpoQDqan3IazFNOQ+De+5jw3Lkgki0tjCRVxA9Ua1kVmSinctRE1d9ViF5Z6jFVDagGVAOqAdGAmijH8hT9H3mtSyoSARH66SfGeuVVEMaZZzO+Aw4C039v+Ig8M1Cynl59VODqQxqQlhpMVQOqAdVA42rAHoTTGHc4COvCi5nAy6+AiP34I5MKBkGILyi64SjSBqsqEyWVpSZKTY4aXdWAakA1oBqoQw2oiSqSfetkM2Ke4ps2gQjN/YIx77wbhO+Qw7P03wc+whkXyu4LlWffKG2Yddgw9cq2ca9s9djrsVcN1J4GRoyCMWIUzMOPZvx33AUiNHMmE1+7FkQqEmU6sQxVMauqMlFqotTcqMFVDagGVAOqgQbQgJqo7ptAr173SdMEEV20iAk99zwIa8JFjG/4SDDu8aDyzEBpn6gGaJh6RVp7V6R6zPSYqQYaRwNyO2/wCBjtsM6/EETw4UeYyPz5IJKGyfCT++2e3u++AynuJyuSiVITpWZGrzRVA6oB1YBqoAE1oCaq5y5OTFRbJgPGfldOcvNmEOGZM5nAVdeCMI87gTHsynf6QjkZqfzGh9JMVAM2WL3CbZwrXD3WeqxVA9WvgYFDYRCShbLP6+Yxx4KwrriSCU+fDiKxYQPTlkyCqLaMVEUzUWqi1NTolahqQDWgGlANNJAG1EQVLxOVSSbBhMPIhMNIrF7NhJ9+BoT/6GMZY8w4MPZVhpOJcj+dl+d4UdpgG6jB6pVp9V+Z6jHSY6QaaBwNuE2UHPvRB8EYfRDM409igo8/ASK+dCkj40ZV2zv1KpqJUhOlZkYNrWpANaAaUA00kAbURPU8EyX3NNuiURDpbduY+Lz5IIKTb2OsEaNAGM37ZBHH6iqlr1O+pTbYBmqwLq3osddjrxpQDagGKqgBOZ+LmZIYLX2kxh4KY+yh8E++jYnOngMivnEjk47FQEjf6iI4kh5toiKZKDVRFRSwCFbLxkmf67HWY60aUA1UiwbURPXItPGH5Z5mm2mCSK1axUSmTQcRuPRyxtpjLxC5rhryzUDJerm2p8vV5KkGVAOqAdWAaqAEGpAhDtyZKDF59guK/ZdeDiL00stZFi1GaNFixEyTSadSICr9V5FMlJqoEghTBKhlTtOtgVH1pxpQDagGKqQBNVE98H002iiRTjPprVtBxL78kgn+52EQ5oknMyryColcjZgaMdWAakA1oBoopQbktp7Hd5innwXCf8tkJvDJLBCxlhYmk06DqPRfeTNRaqK0UXo0GDXMaphVA6oB1UADaUBNVOH+zxlcM5VCWyqF5Lp1jIxMKiOV0lgRjJ5w1XSpBlQDqgHVgGqg/jQgt/VyHFsnI/XSS/C/9BKi69cz1TKCeVkzUWqiGugqI0fD0CtO1YJqQDWgGmhgDaiJ6kYmyn5HXiYaBZFYtYoJPvU0CGP8kVnyrFxtgA3cANWk1d+VqR5TPaaqgcbRQIHn+cAjj4KIr1rFiI+gu1pEpf7Km4lSE9U4DUSDoR5r1YBqQDWgGvDSgJqo/H2fjCyaSSRApCyLiX/3HYjAHXcxmlnSzJJqQDWgGlANqAZUA24NyFN68QULQKQNg8nE4yBkEO/8nUlx1ixLJkpNlDYId4PQadWEakA1oBpQDeSrgYY2UchkQGQiESa1bRuI6OdzGf91/wKRb2XqetrwVAOqAdWAakA10Aga6Aujd19nvKgYjRX1ySykNvzGtIXDIOo6E6UmqhGErr9RA7pqQDWgGlANFFsDaqLgvOYlEEBbIIDU2rVM5L33QFiX/ZNR8RVbfLo91ZRqQDWgGlAN1LIGsibKuvwKEJHXX2eSK1eCaPP7GXkTSnF6OuW/lfL0ibKfyiMDpSaqlsWs+67BWDWgGlANqAbKqQE1UTyGA43jIL3pE8uXgwi9+BJjnXs+CKPARx5VyOUUsn6X6k01oBpQDagGyq2BrIkyzzgTRPCxxxh5uj/j84Go1HhR5clE2YNhqYkqt/j0+zTgqQZUA6oB1UAta6CBTZS85iUTi4FIbtnKxL78CkTwPw8z1nkXgDAGDs3iNTiXztcnGFUDZdeAecyx6Ao9QdXyCUr3XfVb7RroaKICt98BIvLJJ0xq0yYQlRovqqSZKDVR1S5O3T8NoLk10JWBomVah7nrUOtI60g10F0NNLKJcr/mZe1aJNauReSjjxj/rbeDME85jTGa9wGj2QY9MakGSqiBbFCisVc60Lw3DGLYflnGHwFj/BGwJlyUZeIkWBMnwX/jTVluuBF+4i/HZ+ndDH/v5hLud3eDsH5OT+CqgdrVgG2ijjoG5lHHwLriSiY8fTqI1IYNTCaeAFHu8aJKm4lSE6UnFDVDVagBl3kSM6UmqgqPlZ78a/fkr8euOMdOTRTS0ShDWSgiPHUaY028CoR51F+Y4lS4ClfrUTXQtQY6miizTz8w/feG2X9vGGMPYawL/wFC+i6GXn0NhLTf0BNPggicN4GhLJRmolR7XWtP60frp1AN2PFqxP4wRuzv3LmSp/uTa9eCkHfz1mUmSk1UoaLR9TXQlFIDaqJUX6XUl25b9VVMDTSwicqk0yDERMVWrQIRfPFFxhkfasw4GITe+tE6UA2UQQN2UGoaAKNpAExhv1EwiTPPZgL3PwAi8vHHTPyHH8AsWYL4kiWIfvgRE7xiIgh/08AsdkbK6rUnCG3XWgeqAdVA9zXQ0URZYw8BEX7yKSb5yy8g2hIJpq4yUWqitOF0v+Fo3ZWu7tREla5uVbdat6qB4mpATdQumajA40+AMI87gTEGjwCjWQi9alcNlEEDHibqkMNgHnIY/Nf9i5G+T/GVK0GkW1ttfEi3+pBYtpwJTXkAhH/MuCwDh8I/cChnoTgTpU/dluGY6om7uCdurc/qqU+XiRo8HNbg4Qg9+iiT/PlnEG3JJNMQmSg1UdpAq6eBNuKxUBOl+mtE3etvrk3dq4lCKhhkoosWgfDTVeuUB2CMPTSLXqnqlapmoMqoATsoydAG0jfKHq8t+PAjIMJff80ktm8HIVd6mWgURHL9BiY8bTqIwMSrGGvsoWCGjYQ1bGQ2y0zZZj3GWgeqAdVAwRpwmagR+8MasT9C//0v42Si7NfL1WUmSk2UXgHpCbSaNKAmSvVYTXrUfVE9dqUBNVG7ZqJuvxP+2++EQVepRNNeWQp2qF1VvC7Thqka6FwDdlCSDNThR8E8/CgEbrqZibwzA0Tsp5+YZCgEwvlra+NRgVPbd4CQt6mHn34GhP/8Cxnn6Tx9J6ZmHzS2qwa6rYFsvKLRyonAxZcykbfeApFav4Fpa6hMlJoobVDdblBqjDo3RoXUi5qontdhIfWt62p9qwa6r4FGNlGpFDKplJOJii1aBILft3XDjTD0ClXNlJqpsmvA1zQAzCHj4TtkPL8Pj96JF3rlFSbxww8gkq2tTDqZBOH82Zkop2/Uxk1IbtyE6OdzmeAtk0FYTQOy9O4Lqws6vL+P+2npCaf7JxytO627WtOAfVEnfTQ9SvP0M0GEn3mGiS1cCCLV0sK02a+Zq68+UWqiyn6C1ABSawGk/PurJqr8da7tUutcNeClATVRzgWq+x/KQhHpYJCJL1oEQt6Zp6LyEpXOV22UTgO+QUNAmPbTeKEp94OIfvopk9y4EUQmHmfc7Vqm2zIZEOlIhImtWAki+NTTjP+kU0DICMPWwCFgXFkpzUSV7lhrO9K6rVoNOH2hPUyU/a48el8e4b9lMhObNQtEcsNvTDoUAiHxqC4zUWqitCFXbUNuwNuJaqK0PWp7VA1UXANqouR61LuUTFTSNEHEvvmG0UyUNuCKN+BGMk/2U3jG4OFgxh8BY/wR8F99DRN7/XUQieXLmZRpgmhLZxjvFp5dIu08vmULiPAns5jQff8GETh/AuMfPBxEvn2lPPtR2e/kk6f/Ci1Vexp/VAPl1IBHpql5bxiEuw/UwCEwiNEHMuaZZ4EIPvkUI3EqEwiAaIsnmFxxqlTL/69UG6btSnBVE1VOwep3aYB0aUBNlPMKGn4NTSMZaP2t2i+14hpQE9Vtn+U2UfFvvgGhmSjXSa7iItf9qQvj5aTH3cfTDmIjR8MYORrmOX9ngo88CiI+9wsmuWkziHQsxuTb8OVF4zKelIwvFZs2HUSInvybOAn+MWMZr75RnpknVx+qQjNP7vXr4lhrzFBzVDMa8DBRknFyZ6Jk/Lrj/wbz+L8hcOddTGTWLBDJrVuZfONTqdcrayZKTZT75KbTekIrogbURHXIOLnNk0yr5oqouZo5ketvrpzu1UR128jJ+DJyO09NlDbkyjXkBqh7LxMlV3b2iL/+ybeCCL/7LpNYvRqEvJ7JGW8lz5YvT8WkEwkQKcNgEt99DyLyn4eZwLHHg6D3XjHNe8Mi3PPNpwsAACAASURBVJmmXNPaJ0qzMGreakgDHiZK+kT1aYJBNPXPMmgIjEFDYF05kQlPnQYitmIFkwoEQFTLX0kzUWqiGuDErcGseoKZmijNRGl7rJ72qMfCPhZqorpt+OTKNGmYIDQTpaZKM1El0ICYJyndwdt+Ks867wIQ4f/9j4ku/A5EsqWFcd495dHiM5kMCPdfW1sbGHvcqEwyCSL5229M5O23QQQnXcVY448AQ0/qEbkyT+7lmolSo+DWuE5XsSY8TJQ88CIZqOH7wRi+H78fj96RZz30Hya8YAGIRGsrI77CHYcqNV3aTJSd3lcTVYITpwaNKg4aZT7eYp6kdGtDTVSHDJUa+TLr061HnW6w2KUmqmCDJ1em4hgdEzV/PuLz5+vTeRpEGiyIlPikJeZJSpe+zGOOBeG/9TYmMvNDEPFffmFSoTCIXCP9SruW0iswSB8p6QsZ/f57EOGnn2b8Z58Dwho5OkuhfaM0E6Xtx6VxNcYljjE9qm8PEyV9ouw+UOYxfwHhn3RVlndmwP/ODETWrWMKfWrYKz4Ve35JMlESZNVEVbOwdd/qJvCKeZLSFfDURO2pmSiXJupG+/q7asBQq4kq2LjtaqIMJA0D8XnzGR0nSg2MBvEyaGDMOBhjxsG6chITevElELHvv2ekL5T0YfJq6NKepfRaT+bLeqloFER840YmNmcOiODkWxmL+j0Q0jeqaUB2NHN3Hyj3tGaiauDEWQZ9q4GqER14mCh5g8KBY2EcOBbWJZcw8u7N0HffgYj5fIzEFYkz1VKWKROlJkpNgwbVsmtATVSHDJSOE6VtsOxtUI3erq91kcE11UR5+0BxjM7tPJ+BpI8yUfMYzURpMNNgVjwN+Pr0BeG8g8oeCdh/ymkgAg88yEQ/+wxEcu1aJh0Og5A+TN4tuntL5I0FqVAIRGLVKib80ssgAhMuYqzRB4Lx6hvVw8yTmCcpVXvF057WpdZlbg20i029s7GKY9Z++8O33/4wjzueCdx1N4jo7NlMbMMGEMlIhOleFCr9p8qTiVITVSNpVw0IuQNC9dWRmqiOfZ7ELHmVtXiMdZ+rr93pMcn3mKiJKtjKaSYqX3HpehqIeq4Bx0TZ465Y48aD8F97HRN6ayqI+MqVTKq1FUShI5O7A4G0cyndy+VpP/meVEsLiOgXXzDBu+8F4f/rcYxn3yjJRO2xFyxCprtZquZ6rjmtQ63D/DXQuYkyxh8Bwrz0MibwyisgYj/+yCT9fhAyaPcu8aVKZmgmSu9Za5asxjWgJkozUfmf0PTkr3VVbg2oiSrY78mVqfaJKrdY9fvqM0B2DEJO3yfpoCml3VHTf+rpIIL/eZiJzp8PIrl9O5OOREBIpqjgBu76gLR3KV2LnT5X8m6++IoVIEJTpzGBW24FYRx5DCOZJn/vZhC+Xv0Yw2MIB1k/37I+NaJtX49rdWpALvKcsqk/fE390XryKYx5xx0ggrNnM/EtW0DIU8Ol6rPpjlPdndZMVI1nITRwVGfgKO5xURNFRkpNVCNoXX9jcWNH5evTMU/2AzBkoNRE5bBsckWqmajKC7jeGmRj/p78TJQ19hAQwRtvYiIz3gWR+PlnJh0IgJA+Sjmacd6Lpb1L6f6gzJd4kNixA0T4m2+ZwBNPgTDPOTfL0D/DHPpnzkJpJkpjSGO2+fo57m4T1XrEUSCMa69jAq++CiKyYgWTDARAVHsGSuKcZqI0E6V9oqpeA2qiNBNVPydVNUWNdSzVRIndKqB0X3nSGFE6TlRjNRwNlMU83h1NlOUewbt3E6zeTfCfeRYTeu55EPFFi5jM9h0g2uIJplh9odwhQdq9lLssz2T46jIViYCIrF/P+Ge8C8K6eTIjfaPMQUNB+Jr3ZkRT+fZ98lpPtqNlMTWq21I9eWkgG798BxwI5rwL4DvvAlhPPMGEv/4aRHzbNiYdj4OolT/NRFV9FsJLmDq/cYKWmigyUnK8vcxRvvNlO1pqDFENlEMDaqIKNoRyJSp9IDQTVQ6h6nfUb0Ds2kT5h+0HInjDDUx09hwQqU2bmbZIBAQymSwFt+j8PiDtXkr3p2S+lAnLAhFauJAJPv0MCPPiSxnf6IPADN4XvsH77mqiujluVP3qRGOAHttq1IAdv047HcZpp8O88SYm8N57IKK//MKkwmEQmXSaccePap3WTJRmopyTkwagagxAtE9qotREVas2db80bubSgJqogg2gXGlqJiqXuHS5BqB8NOBhogYPB43yHTz3fCbyzDMg4kuXMmka7dfvR1sqxRTckF0fkHYtpWsxZL6UXstlfioaBRFbv4GJfPwJiOCU+xnjpFNB+EeMymKPG7XLbbsCM1KquXw0p+uoToqsATsT5fSFWrAA4QULkPT5GBkXqlR9NiXuFLvUTJRmojQTVfUaUBPFRkpNlLbVqm+rRTYe9fR71UTl79/kSlQzUdqg9GquGBpwmaimAbCaBsB/3AlM6N//BhH79DMmtXkLiLZEIktbG2eJ8m/BHdeU9uwuO661cyrf9aTvQ9KyQMg7s0JvvAnCuuoaxhx3GAh/82CG35/X/h16molSc1VPZqNefsvog2CMPgjmqWcw/nvvAxH64AMm9uuvINLRKCNxY2ckqY3/NBNVL4LV31HHJxI1UWqiimHGdRt6UVdGDaiJ6r4LFEepmagyClZNVOOYqBH7wxqxPwJXTmSi098GkVy1msn4/SB6+jSetGMp840Isr6UXp+T5RInEi0tIEJff80EH34ERODUMxj/wKEgrOZ9svQq7MXD0pdKT6Qal1QDxdOAtCspnbq1TZR15SQQ4ddfZ+I/LAEhT+07faG8AkWVz9dMlJqPOjYfxQsUTmCoiF5cmSg1UWqiKqLDemlP+juKGc/EPEnpbFtNVPftn/sKUxxnfN48ENbEqxinsjUgqJGpRg007ZV96a3XvslyKb3W6/F8l4kafwSs8UcgRP0L7r0P8W+/ZdItLSDa4nHG3YKlXbrne00Xur57O4V+3nla75dfEfvlV0RmzGCC11wHwj9yDGNRNooosC/ULkG+x8dFT8Yaw1UD0q7cpf/UM0AEH32MiXz1FYjk5i1MOhYDkUlnGHf8qJVpzURpIFUD56WBXOZIlkvptZ0ez1cTpSZKT9Zq2KpTA27zJNNqonpgA+UKVPo6aCaqOsWvQSnHcclljpr3gUHkWq9IJso8/CgQgauvYSJTp4JI/vILkw6HQXi9/VzaZQ+adkk+KvslfSOSO3aAiC/8jok89zyI4JUTGWvkaDD2OwRVxzl03GP96fZVY+00sFs/GLv1g9knS6B3P3Rg7KEIjD0UoZtuZqLvzAARW7WaSYVCIDKpVBZ7hPJMJgNC4kFJgk0JNqqZKA0wmony0kAuc6QmqighSYKmmqh2JyovTep8jVeV1oCaqA5xT01UpQWp31+9QVFMktcxGjgUBpFrPa/P5z0/ezvPPPscEOH//Y+JL14MItXayiCZBNOhiaPqr+zERMlIxalIBERy/XomOns2iNCU+xnr8KPASCYql9nNu57VxGjGRTWQUwO2iaJsFOHvkyXQNABE8PwJjLxBIfHttyCS27Yx6XgchNPuXfGq1ibVRGmArV4TU+ljk8scqYkqSrxzgmlbGzk+NlBqovRknvNkXun40KjfryaqQ9xTE9WoDUF/d8/No5gsr0yIzHeX+da9mLTBI2AMHgH/5FuZ6Gefg3CecrH7QkkmR1q4mBMpZX61lbJ/0pdL3vWXMk0Q8WXLmMhrr4MITLqaoTph5DjkW6+6Xs+1r3XYcHXo67MniNY/9uuA9I3yjz8CROCee5noJ5+ASK9dl8WOU9IXqtriUHf3R02UBoOGCwZFu8KVk7eYJLeWZL67dK/nNa0mSk2UlzZ0vsatMmtATVTnNktNVJmFWLQTuO535YOomCOvYyEmS8xQrvVlO7Ke67UJgedfABFbvZpxP+XSeROvnblORsp+15/0nUhu3gwi/vlcJvifh0GYx53AOBkpqTepRy0r30b0GNTNMfAyUcbefwLhn3ARE3z5FRDxpUuZjGmCaEuns/TwXZ7VFtHURGkjr5tGXnaDmuukrSaqoHinJkr7QZW9DWv8zzv+q4nqPJypidJGlHcj0gBX4EnObaJk2qU5GZzOKe13w/lPOhVE4LY7mOCnn4KIb9vGyJAAufpCiTnpPARUz1zZT6ekMWMyGaSCQSa5YgWI8NRpjP/Gm0AYI0Zl8ahf1W2BunXpU+uvsetPzJOURt8BIFr7ZZGMcHDK/SDkadrE+g0gMtEoI3FK2nehkae7nyv0ewpdX02UBgw1UaXSgJzU5XaeTLu+zzFP8kJdNVHZx5/VRGnbdLUVNXTlN3RinqRUE9XRZqmJ0kaqgbpUGpDbfTlKx0TJu+BGHwRr9EEITLyKCb/5FojoqlVMMhAA4b4yk2mvsmPTr94p2X/ZQ8m4pbZuBRGbN58JPvU0CPP0sxinb5SYVXe9l+o463Y1htSxBsQ8SSkmyjjgIBDmxImMZIgTS5eCSBkGI0/bOk/fdrNPlDsuSHyodKkmqo7Fr1dt5b9q61Dn7pO4x7SaqI5h0B0s1URVWMcaIxvaJIp5klJNVMd4pSZKA0RDB4gOpqfYWnCbJo/tOybKvo0XOP4kEKEHH2JiCxaASLS0MvLUWsemvHNkcjEh7tK9fq1Ny9OI8V9+BRF5733Gf+vtIJy+UXL7VOrfo95Leuz1OzWu1IkGfH36oj3moD+BOeU0mKecBv+jjzGx+fNBpDdtZtpiMRDIZBiJR92NOz39fHe/N9fn1ETVidD1hFCFV+tyEpfSQ2tqonKFqexyNVFVqHEPTWs8qp9j1d5A0f9qojrGKzVRGgT0irHCGrCkL9TYQ2GNPRTBiVcx4WnTQSQ2bGAkA9XTvgUdQ0DtTDm39Xw+pHw+xBYuZELPPAvCOv9CZpe+URU+vmoo6sdQNOKx3MVEHXgwzAMPhv+6fzGhd98Fkfj5ZyYTDIJwP43X3UySfE7KaotYaqI0wKqJqrAG1ETlFxbVRKkZaUQTU+nfrCaq6/ikJqrCJ9BKNxD9/iKemHLctpO6tnr3RQdG7A9rxP7wn3cBE/7vf0FEFy5kkqYJIpNOM1036fpdKhm4TCwGIrVhAxOdNQtEaMr9jHnMX0EYvfsyVvPeYOx6l+OgZRG1r3G0ji5Gs+1G2o9jogYNgW/QEFhnn8OEnngCROzbb5lUSwuItmSS0UxUD2KxpN3SiQSIpM9g4vPmgbAmXsVoENMgVlcaUBPVg6iR+6NqojRe1FW8qFrjqSYqdzTauYZmoqpWyBowayZginmS8YlyaMpqGoD2+P96HIjQHXcysQ8/BBFfv4FJRaMgGv6vrS3bzyKdBtJppP1+JrFiBYjo9OlM4OJLQTjZvoFDYBGaiaqjbInGx9LFx85NlDH+CBCBO+9koh9/DCK1di3jNTK5JFWk7G4c6+nnu/u9uT6nJirHCa90QtUgUDd1qyYqV5wpznI1UWqCNF6XQQNqogoJWGqitFGWoVHWqWF0m6dcmSh7faePzthDYI09BIFLL2MiL7wAIrl8OZOyLBDSobqQhl3P68ptvbZ4AkRq+w4mMX8+iPD9DzDWUceA0UyUtnGN893QgG2mBg+HMXg4rAsmMOHXXgMhcSpjGCAoO8zYFzuSOXKX9Rab1ERp4+pG46pTU1SoFtREVSQeqonS9lc3WexCY05Z11cTlU+AUxNVVlFq8Kur4JeviZL1ho2EMWwkrGH7Mf6zzwERuvc+JvrJLBDyjjh5yqXer+TyCVTt15H6kCvfTCQCIvXLL0xs+nQQoWuuZSjbx2ifKL1g0nifvwbsuGUedQyIwB13MrGvvgKR3rqVaYvFQciftE93KcvrrVQTpY0q/0alddWxrsQcyW08Kd31JOupiSpK/JTgrCZKL8rq6qLMHTcqPa0mKq94pSaq0kLV7+9oTGqpPsQciXmSafdvGDwCPIr22ENh0Kjk449ggjfcCCLy+utMbPlyEKlAgHG3YMc8uBc02LTUg1Pa49JkWltBJBYuZCLPPAsicO75jNmnHwg98ar5Ug10oQGJY6MPgjH6IFj/uIQJvfEGiMSaNUwmFAIh78bzGhdK2mlPw1SxttPT/XB/Xk2U+4Sn03qSyVcDEmzURLnjSkmnJZg6pZoobbP5tlldL7dWJK6picorjqmJ0kaVu1FpHXVdRxJ0vOpp5BgYI8fA/OvxjPSFCv73cRCRefOY+LZtIGSQ2rxasK6EtnQ6SziMtnAYqd9+Y2KzZ4PwT76VMYf/GYRmIbrIQnhpWOc3jm4GDoUxcCjMM89mgo8/ASI6/xsmtX07iLZUismVgZKLnZ6GqmJtp6f74f68migNDo0THEp1rNVEueNKWafVRKkpUmNcRA2oiSoofqmJKtWJtaDtdhzczOq1J9rjDhC+PnuiPe7lOl3EgJLPccxlouy+UOZJp4IIXn9DlrffQfDtdxBbu45JRaIgKnXFJd8rZSaTQSHI56QsKBL1ZGUZl8a+Mpa3yCd+/BFE6PkXGPO0M0Bo+yhz+8inDTXQOu1je2f/F6pPs08zCPlcZ9tsP0/Wk9J5N16fvqD/5Z15/uv+BSLy0cdMYt16EOlQiHGarLS/tjYndkkMaF8669fZP2qiqqLx7hQuCbi94Ol/EbuU7Q0U/S/ztaxQXaiJYrPVPmDS/2X7kyCuJkpjQVXE867jkDu+u6cLjeNqosoWaTr9IjVRVdHo1EQVGjhqav1xh8MYdzjM089igo8/DiK8cCGTtCwQYkKkpUoWyD1flhe7lO+R703T++kKQD4n2yn2/uXcnpgpu6N5aus2EJHZsxn/bbeDqCntVEV86toUaH0WVj9u0+SeLrQ+xUTJdvy9m9EemS+le/tOJqr/3vD13xvmiSczwUceBZFY/iMjT+NlEgkQ7nbuns7ZXutkBTVRVRGk1ES5G3ZdTauJKk+4VBOlBrEq4nnXpkrMjFdZaOxTE1We8OL1LWqiytLoOpokx/nb96Blmt5PxIwcDYMYtl+WgUNgDBwC34EHM629m9AeX68mdKQffL28KbSR6vpdB0XP+rHHh5IMVODe+0BEPvqIkb5Q6VgMhPzJFV25MzvyfclkEkQ4HGYsywJhmiaTSCRASJbKvd+y/1LK8nKXacMAkVi1iglPfxuEf9LVjHPc7I60znRZYkI3NaX7VnNG0css5TtfTJKXPiXrJNsL9GpGeyx7pH4ppc+TnHekNMYfAcJ/401M5P0PQKQ3bWbkXZXy2qVyt+dq/T41UWUJSmqivAJAXc9XE8Up/0oFPzVRatSqIb6IueluqSaqUhEkv+9VE1UNJsrOMBmnnQ7C/MfFjDXpahDmBRMY48STQbQOHs50zD61z0Z5Z6EoQ1UNgaUh9sEeH8q64koQoVdfYyJLl4Jw+kJlMqCrO/mTjJCUMr/UpWSWJAO1efNmECtXrmSWLVsGYuvWrUwkEgEhn3PvX8UzUbRvkQiShsFEFi0C4X/0MYZGj2dGjIJBlCUWqLFptHr2Mk/uDJKsF9xtAAhZLqW1W3+0R+rRWW4/1W38vi8I2Z5koKSkuxp8Z6NpAHyEfUfEvPwKEKFXXmXiS5eCSFsWI+NBudt5o0+riSpL4MyRiVITVZ8nMDVRlc1EqYmqz3ZVlphdPLPrmBnX0DVu8yPrqYmqLVumJqosDbKjiTKaBoAZczCMMQfDPO8Cxn/vvSACL7zASOYi8Nh/QcjIy76xh4DZpS+UZKM0EyVXaRUpZbA6e1yowAMPggjNncvEt24F4YxMLh2i7XFWyp2BkoxRPB4H0dLSwixevBjEu+++y7z22msgFi5cyGzZsgVENBplZDvuEOg1371esacz6TQIGYwz8utaEP7X32Cs8y4AQU9OMmWJBcU7OVdE21pHBRtTMUdepf8Pe6I90p/J/F1fMH/oB/MP/RDo05+R/q5y/N23+2Ra1pcMlNmrCYTcwXD6Rg0ZDt+Q4fDfcScT+/prEMlt25h0OAJC/zqvATVRZQkKaqKkwTdEqSaqQ7RRE6XGqSHavce5xMs8yfz2Bor+VxPVIXxU/YSaKA/hF7fRu0yU/dSdefY5IIIP/YcJv/8BmAULECaWLGEin88F8/obiNBV9FXXMObYQ0D4Bg/P4lxlaCaquMcvz5OgDLo5/kgY44+E/9rrmfCbb4GIrFzFJINBEGIupJQMlEyXK3pIn6ZAIADi559/Zj54/30Qd911F3PllVeCeOWVVxjJVPn9fhCy/+Xa70K/J26aIIJffZ3FfieYvCOsIpopS/zJU7+6LwVnmfLRjJgldymZIjFRATJQ7fD/vh8IMVVy+y/fTJTTf8p+Ok8yUWbzIDD2+cOccBGI4IsvMfFffgHhjAdlZ3MLbW+Nsr6aqLIEDjVR+QSbml9HTRQbqWoNnmqi1ExVIsa4zZNMq4mq1khR2H6piaqAifKffQ6I0EP/YeTdRLFVq0EkWloYeXoruXEjiMSSJUz45ZdBWFddw/jGHgqmi7Gh5OpFn84rwolEzJKUvfvDIEYeyFgTLgIhbz+PfT0PRGLrViYdj4OQP8k8VSqTI32aNm3aBGL+/PnMk08+CWLChAnMUUceCeKaq69mPvzwQxDSN0r2X0r5fdVSpqJRELENGxgZrytw080gDHtICnqDPdO8DwzCOc5F0E5Z4o3uZyXMUr7fmctERXr1BxHqnSXYuz8IyURJnyf/HweAMHZrZlp69QUhrwWT9aRPlL9XXxCBP9j8/XwECLvPZnDuXBCJHTsY99N41dquKx1f1ESVJah1zESpiarxIC8nVSnVRLGRkiArZaWDm/v71UTVeLsrS6wufR2piXK3zNqeVhNVloaZNVHWOeeCCN3/ACMZqPiaNSAk8yRPE4m0MvE4iHRLKxP7/nsQoZdfYXbJSA3eFz7CIzOV7xWTrpdnQG0eAqN5CMzjT2ICd94NIjRzJhP/+WcQqWCQyaRSIORPMlFSyvxSl9IXyufzgViyZAnz+uuvg5g0aRJz4JgxIJp234P5y1/+AkIyVcuXLwchfapku6Xe/0K3L0/rpcJhENHly5nA8y+AsM6/kDHsoSmczJRmpErSV6hR44uYKCndfaKCvZpBSJ8o6/f9QEgmSupNMk6tuzWDaOmzJ2P+sT8Id58o6w9NIPyjDmRCt98BIjJzJhNfuxaEtI9C21ejrq8mSk2UBsieakBNlJqonmpIP98wcUjMk5RqomrbfqmJKkPwss45D4Tce47O/BBEfPVPjIyoLE9DeEkqHQ6DSG3fweTMSNmZKBpjpD1yJaNlnpmmXBoZMRrGiNHwX3o5E3rhBRCRxT8wCZ8PRDqZZMqdcfLSk/SFWrduHYhZn3zC3H333SAk49R/z2YQkokaPnQYiMmTJzMzZ84EsXbtWkZGMvf63krPl/G54lu2gAh8+FGW2+9E4PY74T/pVMYaNhKE00fKuX1bJN3k0pUur2tj5TZRYqa8SumILhmo7b36gpBMlO+P/cH02ZP7RUmfKOkLZfxudxC+U09ngk8+BSJJb0+gkclDoSz0XsxEotLNtGa+X01UGQKVmqg6P+moiVITVYY4ohc99RVH1ETVjE/qckfVRJUw+LnNU+STWSBiq1YxXn2gvI6Y9JVqS6VAJLfvYCQjJU/tOeNIHXQoTGKffbPYGSkNxsUNxuZxfwMRuPteJjp7Doj4xo1MOhYDUS0ZKOmz1NraCuL7779nnnv2ORDnnH0OI5knKYfsMxjEoL0GMpdccgmIxx9/nJGn+rZt2wYilUoxXnqu1Hw5DjJeV+THH0GEX3udCVxzLQhrzDhGM1HFbS8af7L16WSKejdzfycZD8op7RHKJQMl67szT6279wexo3c/pvUPfUGISQv13hNE8KRTGfPGm0CEPviASW3ZAsL5s9+g4EzrP13WgJooNVF1nTIvR8BWE6Umqhw60++oLzMnpkg6jDvmqVdzdoBNNVFdmpdqWagmqhsmShy+NXAomD32gkU078METj8LRGjKA0z0o49BxH76iYlv3w4iGQox8tRQvqKQ9TOxGIgUXfVv24bEd98xsVdfAxG5/gYm8JfjQViDRzAajIsUjMceCmPsofBffS0jI5MnVqwAkfL7Gckg5nt8i72eDDkgZSgUAiFP1U2bOg3EHXfcwZxy8ikg3H2hJBMl8485+mgQl19+OTN9+nQQv/zyCyPv4hO9Sgao2L+v0O3JfkjfqGRLK4jYtwuY0H8eBuE/9gRmZ3vJPmUrb73fWWb7oEhflVzlzu0VSYfdiGG6D9VX9855xX5RsRyj1t79QEimSZ7Ca/ljMxj7qTxZT8aPCjXtDWbfUQjtOwrBiZMY/0svgZA3YqQCARDOX41kotKpFAiJa5Jhl/nO7ynxP2qiuhGAHLGriWrsLJaaKDVRfXYObpjLPMlyOTlqWX1GppLHxDmvqInKy/aIWVIT1Q0TU0mh03c7GSgxUbbo/eddAMIZB2rWLERmzUL8p5+YpGmBkCtguSLOSzHtVpLPyRW+V0Yq+uprIILX38D4/3I8CGPEqCw1WPeVPvb8/fZTWvLOteB/HwcRm/8Nk9q6FYSM79WWyYAo9p/oQErZvgQVmS9XaMFgEMT69euZWbNmgXjwwQcZ6Qu1/8iRIKQvlJSSgZI+UVKOP/RQEA899BCzcOFCEDL+lGSkZP+qprSvuKXPWmLtWhDh6e8wgWuvB2EefjRjNA0A4RPYQKmJqoo2WYexTEy3ZJ6M3QeA2LHbnlns7JSz3B65XMaH8o86CIR5yumM9fAjIAJz5zLxrVtBSB9biRdV0z5dOyJxLBaLgZCMusSXRCIBotx9MTUT1Y3Gpyaqwa8g1UQ5ncvJSKmJ0tt5aqSKHxPVRHV0UWqifAbi8+Yx1sSrQNRqw+P+T9QHSjJQp54B/6lnOBmo6MefgHBGIjdMJA0TRe8bY19Jy3bdGan4fMTIFQAAIABJREFUd9+BCL36GuO//gYQ5kmnMpqRKjDwycjVNHbQsJFcl1SfkXffYxK//ApCxlspVQaqY2jZdcqdiZJpyQwtXrwYxIsvvsi4RyaXDJNkoKSUTJSU7vWuveZaEG+++SazYsUKEJZlMbvuaWXm7HLFbbcjaqNEdOFCJvjU0yCsf1zCGCNHg9jZF4qyUJqJqtU4Xqn9lvNGcLcBINz7Ye0+AIRkmORpPHmHo7tvlH+PvUA4puv3TWj5fROscYcz4cuvBPPmW+B+m2vWILxmDT8xzE8N25nyXdpFZZqn57eGw2EQ27dvZ+Rdn4ZhgJBx75LJJIhy/WkmqjuZKOlIriZqlwDgDgh1Na0myulsTkZKTZSaqLpq3904F3Tn96uJ6p69URNVT5kouy/ULn2gZs9GZPZsJwPlPPUgGaO2Nh4rqHsS8v6UXEF4ZaRi330HIkJP7L36Gvy3TGY0I5VnJkpGqh59EIzRB8E88WQm+PgTIOILv2NSLS0g2pJJxvuIlWaJ6EC2Lulveafdzz//DOLDmR8yt912G4iT/nYSIxkntzmS+VJKJkqe1pP5p59+OgjZroyA/ttvv4GQvgqSGZP9LHfprif5/nQ0CiK+bj0TnTUbRPDf9zNy3H2DhoBx+kbp7bzumIlG/YyYKBn/yf2OU3n3nWScpJTMVEuvviAM6QMlmSt7vm/4SBDBv5+fZcr9CE65H4Evv2Lira0gnHZgn5+kHVRrKSZq+bJlICSjLvFF+nxK3yj5fVKW6ndpJqobVx/SJ0pNVJ4mpBt1XFUBVk1Uh07maqLURFVV+6yx+KImqnt2Rk1UTWWi+sPo3R7bLNhPtTnjQN3/APeD2rUPlAF6Hx7oiaxMxhnHotSOGJLxSqe5/5XTR2rrNqS27hxHKvL6GyA0I5WnCRw4lN+fZh5/EojATTczkZkfgkiuXcfIuw3L3RdKdCWlhCjJ/GzZvAXEF198wTz11FMgzjv3PMb9NJ6YJMkweZXujNUh48aBkMzW//73PxBLly5lJCNW7j4LUh+5SnnaNR0IgEiuWMmEX38DhHnZPxnf2ENAtPQdwEhflHxLNSB5trsaM0dex1VMk1fp/pzoSDJNTmnXhwzSKaWMUN465mAQ1jHHMr7Jt4GZPh2+6dMRWLWaSUWjIGrtb/u2bSA+/PBD5oMPPgCxatUqRvpeytN6Eg+lLNXv1UxUpw21vYGi/9VEOXUgddFIpZqoDpkoMVVqotRENXRcyDMGepknme+uQzVRndsdNVG1nImyM1DW+ReCkJHIaQwoHgdqzRruB+X0gbIzUOKApexcGsWfK9+3Sx8pOyMlfXjkClszUh5XxnIbb8w4GPQetcv+yYRefAlEbOkyJuUzQGQSCaZcmSjnONt97WRa+hzJlZn0HXj55ZdBXHfddcxRRx4JQsxQvhkoMVGyvrtv1PChw0DccMMNzMcffwxi3bp1jPRdkP0sfgsobItSb05p92mTNwGE534BwpoyhfGdcSaIliHDGTnp5Vu6T5o67dH+8jQp1V5/Ypbk9S5SynzpGyXjO8nvkUyTzHevL9sx7XeiWuMOA9F67vnMjmefAxGiJ7TpbRYtLUyGRvlOpQprJBVYW/p0ym08yWjLuzqffvppED8sXsyYpglCMlGyy9KuZbrYpWaiOm2orkyUmqid2bhO66tOg6CaqE4zUGqi1ETJiV7L3LFPzI+YHillvpqozm2Nmqi2Nmdk7qTPAFEt40TlvGLs3R8+YsRoRjJQwYcfASHvwnNGIrfHl5E+SXKFLQ7YXXYumRLM9eojtXkzUps3O0+V5cpIueur/gJn9p1oRm9XOXAIjIFDnKfxAnfeDSI69wsmsXkzCHmqS4676KAER7TTTYq+JOhIufG330DIU3K33norCHk33n4jRoBwmyLJMMn8XKVXJkv6XD3xxBMgvv32W2bbtm0gpG+UU2+d/rrSz5T6c39TKhgEEVmxggm88SYI49rrs4w/Esb4I+Fr2qsjfbp+Wq/+2k9uI9HIv1nMkpT+P+yJDvRuBhkrWS6ZJTFbMm3+ri8IeVGxTAcHDAYROOscZus994IIfPIJk/jtNxAyMr/0/XPrvdqmJQMl40LNnTsXxLXXXsvceeedIBYsWMDIeFHuTFSpf1dDZqLcpmCXaTVRHQbjdNdP/QVEl3kSM6UmyjFYXRkpNVFqouovJhTPGIo5krKDgSJDpSaqU5+jJqqWM1F2Bso8/0IQkoEKz5gBwslA2e/Ck75HckUrZafKqMBM2R/ZT3mKLLl5M4jYwu8Yd0bKOOlUEC37jcpivy1cTFX9BE6XibLfkWaMGw/CunIiE3rhRRDJ1auZtN8PotLvnpLMkzyN19raCuKbb75hnnzySRAXnH8+I0/RifkRgyQZKHcpy6V0L5dp6Rsl2z3m6KP5BcVXXXUViLfeeouRp2mkb5RkpCrQNLr8SunjltiyBUTk66+ZwCOPgjDPPZ+RcXmkXeQq66fdFM9o1HOdiHmSjJL1+34gxEztslwGcbbNlfH/NYGQ9SUT5ft/e4DwD/8zY119DYiWl15iokuXgkiYJiNil/OB17TMr1QpmTLpSC59oZ577jkQZ591FiMZKYlzXn2iSv07NBPVWepdTRQPf6AmSk0UGSQxT1KKaXKXaqK6vo0n5qqeDYP+tl2N5S4mSU1Ul75GTRTgjISaTiS4X1T5+0S5OoZ3GPOpP4w+AzpnvwNg7HcArLPPZYL/ngIiMnMmIxmolN8PIpNMMvI0ltvhd6mUSi60+0plolEQ8hRS4vtFICQjZd0yGUTLCX9jduw9BERr736Mb48B6ECvfsiOvtsMXy9vyh9oXZkmuV3nVTbvDaN5b1jnT2CCTz4FIv7110x62zYQmVickeNf7kMqepNMlLzVXDI9U6dOBXHzzTczRxx2OIh9hw5jBuzZjELot/seINyfkfl/HjEChGxf5h937LEgbrn5Fkb6NmzduhVEJBJh5HdIPcrvk1Lml62024m8CzG1ejWI6AczGf/k20AYfz2ecfpGdXZh1m5e+fW/64ld96H8dSJmSjJKUsp8J1PlykSZvZpA+Pv064CxezMI/9nnZHn4EfgffgThuXOZ+KZNIOQ87NWOvOaXup25v1fMk4w4vnbtWhAzZsxgJPM0auT+IG684QZG+kRJJioRj4Mo11+dZqLURHUpIDVR2KUTeXtDpSZqF6NExklMkZooNVFqwgo3YWKWxDxJKfPVRKVBRkpNVA1kosw+A9CB4aNgDh8F69wLGHrPEBF5/wMmtmo1iJTlZ9x9YNyOuksDU4ULJSOV3LoVRGzRIib0xpsgjMm3MpKRah0xCkSHLBRlpeosE+W//gYQkQ8/ZJJr14LIBIOM9DGr1PGXp9ok6MjI5HPmzAFxzz33MH//+99ByNN4YoZKVYrJku0fMGoUiMsvvYx56803QaxYsYLxtbaCkN8hTUR+X6XqV/YDNKZOKoV0SwsT+/57EKHnX2DMSy4F4dt/TJZ2WSe5hde+VANSuAGppzoT0+Q2UTJ/l7J3X1jtL/Lkf7vPpozzF3z7bRDO+cp+ulSeFpb25Oi6wv9Iu5YyHouBkD6dkmF6+OGHQRx95FHMnns0gdBM1MSrSjj2UNeZqA4GigyVmii+racmyr7tZ2ei1ERlb9+JGcq3VBPVdd+oejIE+lsKN4RiktREtTldf8hIqYlq52rFWcq92HL3ibJ69UdX+HsPADNsFPzDRiFw9rlM6L4pIGIfzGTiq1eDcDJQ9jvp5Pe1+8l18a+8ay9JY/hs24b4okVM8M03QZiTb2V8p5wGonXYn5mdGaga7RPVfxAMYr/9GfOYv4AIPvYYE1+8GETaNJm2eAJMJgPqD1XuP9GfXFnKyOQ//PADiBdeeIE584wzQLhHJs/XDHV3PbeJkulTTz4FxD13381Ixmz9unUgpG+U/C75nVKWu57d3yftI75uHYjInDmM/977QMiDGL7++4DxyEip8SjceNRTnYmJyreUrge+pgFg+vSFr09fmBf9gwk8+RSIyLffMokdO0BIptyt40pPS3uWdi59ISWOrVmzBsSMd95hpC/UiGHDQeTMRCUSnNUu1++syz5RXRkoWqYmqnN5yUlCTZSaqO4aKPqcmCbZhkyricpmqOrJEOhvKdwQ5mueZD01UdnBNdVElXHE8pwmasQB8I84AIFzL2AkAxV57wMQ8VWrGXkKr1odfedWqOdzZWTbxLZtIKKLFzOhqdNAWLfexvhOPBnM4H3hI2q1T1RTfxhN/WGecCLj3MZ7731E3nsfyfXrmTb7nWqiB7mi6nmN57cFuXKT743FYiDkKRZ5q7mMTD72oLEg3EMRiKlxmxyZllLW23uvgSC8pmV9Kf+0z2AQMi2l9I26cMIEEM8++ywj7/bz+Xwg3H2j8qud0q8lT2Em7TcUxJYtAxGaOpWxJl0Nwjf20CyaiSphl43CzUu1GD4xR/mWYqLo7QnM+CNgjD8C/tvvYEIzZ4KI/fork6InrqNR51ZZ6VtG975B4pm0902bNoH4/PPPmSn//jeIE44/ntmruT8IzUTNmwdr4lVMqUStJqp7opZPqYmyO5SriWLjpCYq2zLURNWucSnVuaY7283XPMl6aqLURPF788r77jyPjuUjD4Qx8sCd40DZT+HJuC/OUw32OFCScRBz0WilXNEkt28HkViyhAm9NRWE/9bbGePEU0D4Bg7N4mSkOu8j1Z3A07PP5Bgnyu4T5b/0MhChF19i4j8sAZFubWVA/Z/sflDl7AslmSfpOyA6bGlpAfHll18yDz74IIjTTz+dkZHDi5WJkoySZKSklPlSemWiZPnhh44H8a/rr2c++eQTEJJRk/Gu5HfL762WMh2Pg4jRaP+bNyP89Twm8OhjIMyz/8549Y3qmZbVyNR6/Yk5yrtsGgCLGHsIE/rnlSAiL7zIxH/4AUTS52NkvCXJ9FRLu3Hvh8QzeXPBsmXLQDz//POMjEy+z8BBIPR2Xhlv5xnuwTVlWk2UW8ddTquJUhNFRkkyUWKCxDxJKfOlVBOlJqrWjU4p9z9v82QPuskGSk2UmqiKZqLEPJ03AdZ5ExD49xQm/P4HIGKrVzNJvx9Eo2eg3M5Kbu+ltu8AEfthCROePh2E/7Y7mJ0ZqT/BN/BP7fpISUYqW5YyQHW+bVcmyh7CwOljcOBYGAeOhXn3PUz4yy9BJCj7tn07UpEII+OtOKW7oko0LVds8m68aDQKQkYmf/nll0FcdOGFjIwH5c5AybSYHynF/BSrFNPltX3p03DWGWeCePaZZxgZF0bemVXut7Hne/jkSj8ZCICIrF7NhN97D4R1402MMf5IEO3HiKL/O9eozm+UeinYRA0eDmvwcAROPZ0JP/AgiNhnnzOJjRtBSIZU9CmZqGrL6Mp+yQuGN27cCEIy0jfdeBOIoYOHMNIXSqYlfniOE6VP5xUjmLhu56mJyvf80Ol6aqLURBVisNREqYlqFEPUnd+pJioDMlJqojo93WZnivOt1DhRjrBHjoExcgys8y5g/FMeAOE8zWCPRJ60/CA0A9XFQQV4QE5+115LC1ItLYgvW8aE334HhP/2OxnjxJNB+AYPz9KrCT7Cfteec3x6F8Mw57ONjpkoJz0+/ghY44+AefY5WV58EeaLLyL80xpGzKP7yq7rWireUqcdpdOgbJRkoOQpFhlnSUYmP2TcOBCScfIqJUMkZSEGqf26uT7vtVyuJKVvlFxRvvvuuyAkwybjxiSTSRDV8uccF/vdoJKxjC1YACL07HOMNeEiEBSDmLLpPZ82oeuUPw5l6zxvE7XHXrCIcYczgSsngoi88SYTW7ECRCoQYOT8JQ9AiE6rrd3I03jbtm0FsXjRIkbGt7vowotASB8ozUQlEhXoWG4HCDVRRW0/8noYMlBqoopatZ1uTIKg3M5TE9VpNZV9pnNc1ETprcluGGM1UdnBMNVEdRG63EFm1xHLJ8GaOKl0DdBlngJTHgAR+ehjJvbTTyA0A9XFQexskf3iYhkvKdXSCiK+dCmzs4/U7fDfdjuMk05hzGH7gZAMkPPIbjcCUPeuHl2ZqIFDYA0c4rz9PHD7HWDmzEFgzhzEduxg3FUgunbPL9W0mCfpC+V+p9QzzzwD4pJLLmFy9YWSzJRXhsg9X6bl9lz7LBT9Lx3IZT33cpkvpWxHMlFypSlP4Tz00EMgPvvsM+a3334DIeaxVPXc3e3KFX8qFAIR/+VXJjxrFojA3fcy5imngTAGj8hSNt1rtql78aK09Za3iRo2EtawkfCf9XcmNOV+ELEvv2ISW7aAyCQSWdLZF/iWO07l234knsnTeD/++COIGTNmMNIX6qAxB4KQOCGZKJmWUjLY0pfSNE0QkunKd796ul6FRixXE9XTA1eRz6uJ4gHsylX3EnTURGU70per3vP9HjVRpTUb1WiAirFPaqKCICOlJqqLSCNO2KtPVPDKiSD8ffp1C6NpLzDuKzr7Ss8882wQgQceZKKfzAIR/+knJmkYIGT/yv20VRdVV1OL5DUxGZ8PRGL5ciY8410Q/ltvyzJmLPzt6dMX/j4ds0M7s1M0v9jBOftd9CZ0wr/HACZ08y0gIjPeZaI//wwiGQ4zpT4Y0k7c3yPzpZQrK3mKZerUqSCu+Oc/mWOPPRaEjAvVtPseICTz5C7dGSOZloyRu5QMkqwnpcyX9WW+Vynrua8sDx13CIirJk1iXn31VRBLlixhZCTzdCoFomr+7IuKTDIJQsbpia1cBSLy+htM4MJ/gBD9ucuO2i+F/ovdnnR7XcWovE2SDGHQvA8swp4O9GoG4T/6WCZ0080gojNmMMlVq0Ckg0HG3ReqatqHa0ckjsn4dvO+ngfigfvvZ4447HAQXvFD5msmat48NlBqolwKq8FJNVE9O2hiktxbkflSSvBRE6UmqquTty6rDnMnZijvUk2Umiivk4Bketx9ooqeiRo2Esawkc5IwZKBCn8yC4TTB8o0kTRNJwMlJyn3/ut092og7fOBiK9cyUhGKnjrbSAkG2X1bgJh9LHp7c5KFTsY2pmoMQfDGnMwAiedwoQefxxE9PvvGRknTJ7Gk1qolE5knKQdO3aA+O6775h7770XxP4jRzLuDJQ7EyXTUsoVnWSGpJTMkpS55styKWW7uUp3JkquLE868UQQ99x9N/PJxx+DkJHM5ZHoSh0P0YO7lP2RcXqSW7eCiH89jwndcx8IehKUsTOikpHSTFSx23tlt5e3eZKn7waPgEW4MlGBCReBiDz7HBP/fhEIeUG89E11MlFtbWXtbuBuB17TMi6U9IVas2YNiDfeeIOZMGECiFxxQ5ZLvGjoPlFqorzkVtvz1UQV9/ipiVITpdmlyhqi7tS/mKGcpZooNVFepwznysx+BLjUmSjrnPNABB58iInOmgXCnYGSjqCyf177r/O7VwNye0/MVGLlShCSkZI+UuZxx4MoXyYqG4gpC0UEr/sXE3rvPRDxjRsZtz4qpRP5XhknaenSpSDkyk36QkkGSkrJNOUq5YpOMkhSujNQ7vley2U9KWX7XqVcSbpLGZH4wgkTQDzzv/8x8vTNtm3bQMjtze6ptHSfEv2k/X4QydWrmejb74DwT7qaMcYfAWaXDKxkZGvPOHTHbNTrZ3KaJ+kL5VEGxo4HEbplMhOfNRtEYv16Rp4GrfYMlDwYE4lEQMjTtvO+/hqE9IXSTFQnMUlOAuW6nacmqpODUIFZaqKKU+nSftREqYmqV6NRz79LTVQ2DqqJ6sH5QE4CRTdRTQPgbxoAY/RBjIxEHnzoPyDCs2cznhmoTAZ0tah/5akByUi5+0jtzEidAPO4E2CMOTiLc2Ve5CvxMeNgjBkH/6WXM6HnngcRXrKEkb5Q5akV72+RdiOZlg0bNoB4//33mVtuvhmEPI2XK+PktdydIZIMkjvT5LWe13wZN0q2415Ppt0ZKPe0jGQu48a88/Y7IFauXMn4/X4Q0tfCu0bLvMR+Wi8djYJIbtnCxL77DkTo+RcY6+JLQezaF0ozUfVgrnKaKLmN585E2X2jAhdeDCL60stMctkyECnDZORpUNG/xI0yq93z62R/pDuCPI33ww8/gJCMumSg8n0qzx0/tE9Ud4Y4UBPlKdxqXKAmqrCjIsFHTdR4kJFSE1Xki4miDx2i+9eZ6VMTle3griaqsPjfYW05GRQ9EzXoT/AP+pPzLrzgw4+AiM6ew8TXrAFBT+AR0kfBKav06YUOlVdHE16392RcJv+tt4OgbBRnpEoV5CUTde998N97H8JffMHEt20DITqtdNXLO+LkNt6iRYtAPProo8zhhx0GQp7K88o05ZovV3RSSibKXcryXKV8bt+hw0BIRsrrc5J58npKT/pGnff3v4OQ3//FF1+AkHcHSpCu9HFzf7/EG3mnWXztWhCRWbOYnZkoNSGdmZBan5fTRLmGNJD1/SeeDCL8wINM4quvQaQ3bWYy8TiIau8LJe1BnqaVp2s/+ugjENIXqtAMlMQTiR+aiepOJkpNlOizJko1UYUdJjVRTfyqBzVRaq5q2UiJKfIs1UQVNC6UmCcp1UQVMtimffvOv/8BIAIXTGAkAxWe8ymI2Jo1TLVnoCRDJ6Xc03aXhZ16a2dtub0nT+15ZqTszFGPA6lkoOy+UMGp00DIyOTpWAxEJpVi5LiUu0bl+EtfHxlH5d133wVx9dVXM3v8cXcQuTJNuZZLMJJSMknuUpbnKuVzkoGS0utzEgSl3GfgILRHMlRHHn4EiGuvvoaRvhTLli0DIe/Kkg6s5T5uXt8nOpJ3mqV8Boj4smVM8PEnQBjjj+xIqTKxut0SvAXB2+h6mifpA+XuE2W/Iy8w6WoQsffeZ5L09oSff0YmGGScDFSV9+2V11Tt2L4dhDxd+/RTT4OQvlBe8SHXfIkbmonKJxOlJsorTtfkfDVRnR82NVFqothQqdkpq9np8UWax/FSE5UCGSk1UZ3H+7zmypWY9DXp9jhR9u07yUCFH34ERHTOHGZnBspC0rScPlByUpL9kDKvnS/DSuLUY7EYOkP2vwy7UtavaIvFQKR9BpMzI+URpOSpJrNPP7RH5kvpv/QyEIF77mPCn38OItHqY+SdiZXSh2RQ4rE4COnr89lnn4GYMmUKc+qpp4IoVSbKfeUnmSX3fK9pWV+eypNpr/XlStJdSjZK5sv0ySedBOLf993HzJkzB4Q8vRiNVvcLiuW2dmrDBhCRjz5mArfdAcLJSHnq3TvrUSojoNvtfp3vYqJcI9TTE+bMkH3hH7IvgieezEQeeRRE4rvvmXRLK4i2RIKpdLzKdbKQ85pk1FesWAFi2rRpzHXXXQeiu32hJJ5IfNBMVD6ZKDVRuXRbU8vVRHU8XGqisn2gJCiKaXJPq4nq/gldzVD5605NVHYIEjVRHeN9QVNyZV9wJkocuqsPlDsDFf/5ZxCUfeosAyWZHNmPgna+DCsbhgFCMg/r168HsW7dOkaWS5ZKfk8Zdq0sXyH39p0Mpf2uPXcfKePYE8Ds0kcqO55O+ywU/e/r1ZRlzFj4xozdmYGaOg1h6gu1ciWTikRBeP2VWjeyfRnKQK7cpK/Pc88+C+KMM85gRuw7AkRzvz2ZXH2eci2XK7pilf8/e+/hZkWR/f9//ozfd3cViQMOOQhDUsQsKoKIoAjroqigoLhrYsG4YkSQRRTXgAKGRUGWpAuSRFEJigJKlszknDm/55yZ9+xQTM/Nd/re++Z5Xs+huqv79lSdqnr36erqQJEn93cgkoK1EFd33XmXKPPfm29s3bpVlKzMTAN3wl71Gu/teEtPdG266mr7rqQ+0i7/+Wej6KOPROHbevEXOrEUlwFFVG0EKu/a60QpfOivRunny0Sp2LfPqC4uFuVMZaURb/8N9ffwNh4+lL527VpRZs2cZYwYMUIUtz8INY1+g5GohiJRFFEUUZ8tsWUPdOkDiiiKKO0wKaKSS2TEUsD44dwUUb+LCimKqFBlaAP5/xeJypKKrKy6r5rn/+0RUfAV8zrbpYfkdukh+SNuNQpnzhKl9L//Ncr37hWlbuXW8nLRN2Bwx4eIDe70G7ikJt1UWFgoCiJOG9avF2X5f5YbX3zxhSj4VtrJkydFwZyZJr34GPx4nX9kZkqFsnOnUbxkiSgFz/zDyL71NlE0umS0vlCyWl8oOc3TaqidG5XdvZcYt46S7FtHSf68t4zSLVtEQeSrqqJCFK9/sfIf1z/xVXP4w8qVK0X5+5S/G5f0v1gUzDUK9Y4tWfLjbb/rBg0SZcqUKcayZctEwTo0+EaXW85e9Rzr7fAjRF7P6Bo/ZWVSefy4UbppkygFz79o5Fx+jRidL5IcpVV6Df+vpeTU45xBGm99BWn9IDSS+RrOqR9nTlS+jnFdekjB7WOM4nnzRKnYutWozsoSA+Obz9c3xLQEvC27fft2URYuXGj89aGHROl5UU8j0n4pJSJR6JzqBsksiigtE4ooeEaNrfMPiigT1hRRFzQY6qeIoohKJNFFEUURdfZIF0GqbpB0RdTd90q+fj8KCr17L8nt3kvyxtxhFL78iiglq1cbWIm8Mi9PFKy/gjtOWNz5RXDJUT0UiydCPGHuE1ZexroZzz77rCgvv/yysXjxYlGg6E+dOiWK3+Z8RKuwUJ8WjcrMlNKfdtawZKmULlkqBc88ayAilT3wSlFyOnaroU265LRJl7wbbzLyn3hSlMLly43SvXtFqSouMfCWC64/Xn6DOzastH3ixAlRNm/ebLz22muijBwxwoB4iPTOLVmO75ORIcqo224z0H6wDg0it2h3qN+mtvAvRKSqCgtFKdu71yhc9KEoefdNNM6JSNWLQmlE6pxBOsgIFI7L+VNraYhEEip+vlaUc53FOFdr8/teIkrhY48beNJSceSIKNUlJTVUVUl1VVVTu2/A38dcqMOHDomCm0G8XXzfSNNOAAAgAElEQVTT0KGi4O3iSPsjRqI2bjIBRRG1zhYe04GAIqrmsSxFFEVUYx0sRVRNRKpucA5RPOG4hgSUbvOzMEmka0M511mKKIqogFLUIwPmnuh8qLPmRDmRqLo5UK/MkMJXZkjpqlVG2Z49olTk5hqY+wTr1wgUisONQK1fv16UefPmGXfffbcogwcPNm4edrMoTzzxhPHvf/9bFMyRyszMFCVZI1J1kcvax3vlP+0U5X9zpGojUsNHSPbwEZLVvaeR2zJNlPw776rhX29L/r/eluJt24zyzExR4DeoH1hECpCOtsX58TYe5g7s3LlTlA8//NAYf+94US4fONAI9a23xgRIMuxDZO6aq64S5dFHHjE++/RTUfBKNdpdtOsx0vPBDxCRKj91SpTiTV8bhXNeFyV39B1GTttOYjRLkxylNiJVNziHKKLy/thalNzz2jRIrIRK1h/0zdmWKSvS6p64DLhMcgdcJgWjbjeK335bFLytWVVQIEp1RYXh+hv8x93eVGk3oo6I8Nv/+pco4++918BcKEaiwqgpiqiaieR4jEcR1bgTUURRRDUm9iiiIotEUUQ1zVuOFFE1E8opohof/xrc6ymiJj0g+ZMekLwbbjQKpz8vSvGqVUZdBKp2HSh82ww/4tcIFOZi4E7YFU9z574uyoMPPmj0zsgQxV3XB5GpJ598UhREpLCOECIZyRqRwhypSo26aRRp507DjUjljL1TlOwRI43C6dNFKV79hVH++++ieK0LFa87O9QT/OLwocOi4G3MZ555RpRrr7nGyOjZU5TGBEUq78NjvVtHjhQFcwmx0jvmmqGfQL8Rr/rG7wWylYVFopQdPGiUrFotSv6jjxs57buJ0S1DcpQEi0QhAgUbrUhXtM8XrevyOg9EFJ64FDz3nCjFa9YYFceOiYIIVHVVtSh+/Yd2lJ+fL8quXbuMjz76SBQ8SbnqqqtEgXiCjbTvSq05UbWvkp/zOI8iiiKqkR6CIooiqrGOliKqVViTy+MdiYLYgfUSGaFuj/b5Qv39UPNTRNV8OJ0iqpFBz2uXVySq4B/TxahdB6hk2TJRynbvMTAHChEoKF/8jpvG9qa2iDR4RaDGjbtLFEQcLmzbTpSO7TsYiEhh+5AhQ0SZNm2a8cnHn4iya9duI9kjUni8h4hU5U87RSn+97+N/H/OESVv5iyj8LPPREHkqu5tzspKUV/Cv3j5DyIhWHkeb1n+8MMPomBu3J/H/FmUXj17Gnhs1ZiQSOV93Tp3EQXf4Bo3bpwoH3zwgYG5UViHC29Fov79YhF5qMrPFwVzAAvfeFOU3KHDjZz+A8WonRsV6ZyoWE8sh8hxrSs+wr0OnNc9n9/TOfdPFKXw00+N0t27RaksKDD0TbyG3saLV38VbLuoqqwUBR8YxjSVGTNmiHLHHXcYXTp1FgXiCTbSvouRqI2bagSUCimKKIqoRlouRVTD6yZF2gkl+vEUUZFFosIVL8GKFIgc17rHh3sdOK97Pr+nKaJqIlKR9j8pLaIqfv5ZlOKPPqph6edSvPRzKftll4EIlPutIL8pcYz7wc6BQgSqY4d0URBxatOqtSg9unc3kHb3Y44UIlJLliwRJVUiUni8V5WZKUrptu01rF8vpcrar4yyH38SpeLkSQPH4a28ePkRfgdzofBtvD2794iC+nv44YdFQUQFEUi+lde4eMQK7hBTiOz+49lnRfnyiy+NQ4cOiVJSUmKg3frF1vll7bfRKo4eE6V41Wojf9oTouQOGWbgbb1II1GRig2IH6/zQOS41s2P87jWzYd0oPMhn2/sgCskux65s14Tpej7743y06dFwc0iItfwT/QjSDe1RUQXT1z27NkjyoeLPjT+9te/iTJw4EADkSfXUkSFUJPu4zyKKIqoENynLivEEEVU4+Ii0s4pUY6niIosEhWpyIDo8TqPK3aQdvPjPK518yGN88Biu29tPQGlYooiipGoukEt2P9AROGZb9Xvv4tS/t33RtnPP4tSUfsWHtZPcc/vN0WO64MiDzQHChEoWESaXOtGorAfkarbR90uCr6thohGqkWkKk+dFqXi0GGj8vDvYmRlSWVWllSVlhq400d9xcvijg0r+eKr5lipHm+TXX/99aJ07dzFQH0nipjxy3ViojnmRr355puifPPNN0ZWVpYouNP3TX9y5ozY6vm1jlmRkyNK6c8/G0WLPhQFj4GyOnQVJfeCtjWEuU5UuKIjXLHjJXrc8yHtXh+Od62bz3fpWhGVe/9EUfI+/tgoOXhQlKqyMqOp+qlQ+0PM7Txy5IgoeBsWc6FGjBghSof09oYbgUI60n4jJR/nUUTVRKAookJttmfnR0SKIooRqfodMUVUcJEpvJ0XrtiAyIH1Oo8rdpB28+M8rnXz4XjXuvl8l6aIOmdSuQqp+m03nP+nlIjCEIi3UCCmyo4fF6U8K8vwikDheL/ZcCNQ4YooRCj69e0rNfSTfn37pXxECt8gqyouFqVuLp1zhx8v/0GEAyuTIwKCFefnz58vyl133mlgDhTqFzacjiWVj8HbjDdcf70oEydOND7++GNRDhw4YGCFZUQKUV/x8o9Av4MIKlYyL9z0tSg5L79iZF51jSjZHboboc6NgohyRQvS0RIhrthB2j0/fte1bj6kcR5YbPerRQSq4I03RSnc8p1RnpMjSqL8w9xOvA2Ot4vffvttUSZPnmxc3L+/KIg4edlI+yqKqIICE1AUURfUTTDH4On1OA/7KaJquh1EpCiiGJHSDpkiKrRIlCtakI6WGIHIca17fvyua918SAc6H/L5xVJEnb0+FEQVRVQ48rk2MlC37lNVlWj0qW6OQnV1zXfNzpwR3B2q9cs/XCciUPv27RNl7dq1xty5c0XBt/C8ViKHGIJYCtd2bN9RlFuG32I8/tjjoixdutTYu3evKLjzxluE+Dv8Uq7Jdh0oX9dPlv9nuSgvvfSSMWzoTaLwLbzoiECUY/++fUW5btAgY+bMmaJ89913Rubp06L49W099I94W6vot72iZC9cZGSN/rMoeOMr3EiU++08LxETrmhxj3PT4Yoc9zxIh3u+cI/L+mMbqU/2H9tIfXKuuEaU/H9MN+wN4vXrpezIEaOiuFiURPmHcQRzoTDO4EsLNw29SRSMZxjnvCxFVDg1TxF1VtQJzhaupYgKxwljfwxFVHREUaidLEVUaJEoiqjIvqFXX0Dp/+sLKP0/RdS5T1nqC6pQ27ebPyUf58V++IrNL7iD4uHDh0X5au1aI9QIFBwpXPGE45o3ayH16Z3RW5T/vbW3VJYsWWrRKI1I4Vk2nm3j74pNqaXeWRE9xR3b8ePHRdm0caPx2qxZotwx5s/GwAEDRHE7B6YjE2F4rIeI1IMPPCDKwoULDXzjC5FC1JtfPbZEo2anT0ve+vVG7vTnxfjzXyRX6dm3hiDf0sOcKFdEIY2IlBuhCTfig+Nc654/1LR7PqRDPU+4+c8RUc0vlGyle28j9447RSl8b75Rtnu3KJWFhQbeWver3+G6MHcQ4wfmQs2ePVsUPHnB2+MY3wLZSPs5iijUUAJYiA10uhRRCVBpTXCJGIwpoiITQZF2rhRRjUekKKIii0BBdFFEUUTVH2b+r36C/68pAVc8YeXjTZs2iRJuBAoKHRGlcC2iUG1apUl9sE7H1KlTRVm2bJmBOVwY5BmRiq6nw1/wrbZffvlFFHzV/KHJk0VBBAorbUcqGnj82aINj/WwGOfIESNEmTJlirF69WpRTpw4YaDeIIKj6xWRn628qEiUor17jYIlS0TJf/JpI2/QYFFy23WuIUBECiIKEScvC7EQqUWEyLXROm+k5wn/+LMf4WV16CFK9uCbDNRP4arVopTrm+jHj9fM+8X83+rqyB0kRmdAe8A6d7/++qsoixcvNh599FFR8KUFjGvB2kj7LUaiYlTx0TwtOldEoCiiolm6yXcu+AtF1NmiJtLOMtTjKaKCi0R5iSdsD19cnB3pccUT0pGeP1rnCf86KKIoov43jjES9b+yqHtb0BVPGzZsEGXevHkGngUHegvPS5mHG4H633FnR6AQmYLVNaSUJ5980sDbFLijyM/PF4URqXqVH8Z/cceGlXyxMvl///tfUaZPn27cOHiwKBAFGOyRpo2N+ELkD2/rYSXz3bt3i4K39NAOUJ9huEJUD8F14C29suwcUQq3bzfy//W2KHl33Gnk9h0gRpArmYcvHs4WSV7ngciB9cqXuNsdETXgSskacKXkPvQ3o3DhIlFKdv5sVOTni5Io/9AeTp48KQreQn/uuedEuXXkSMNrnTuvcQ/bI+3vGInysSchokAR5eNK8tGlYbCjiIqNCIq0s6WIajgyFWvxAvEEG+vfi//5KaJUSFFE1QxGjESJnBOBOnzokCgbN240cAcbaQQKSvx/EaXWdWtrhLat8UgUIlLuHClGpKKrwLD+1unTp0XBekRvvfWWKPfcfbeBt8UYgYqv2EJ5Y47UtGnTRMGd9bFjx0SBCMZNVHS9JPKzISJVqtd67JgUrlxlFEx7UpS8wTcZuV16ihFgblT8RUfjEaxoP0aM/d9XK6J0HpRy6+1G/qzXRCn55lujPDNLFKz/FbknxPYMuCksLi4W5bfffjM++OADUW4fNcoI9wkMxr9Ib44YiYqtH4R1dnSeiEBRRIVVjCl3EEVUfEVRqJ0vRVTTRKJCFTEUUf7oOimiwquHlI5EYR0MiKeDBw+KgjlQbgQq1PUwoLxdG1rUqaFoVU0kChGnQNadI7Xs82WicI5UeI0GnQ0mkmP9oU8++USUxx591MBcnIu6dxcFr+CHKgaYPzpiDZFBRAq3/vCDKNnZ2QbmgqB+w/OO6B9VrV93qKqSisJCo3jHj2K8/4EUv/+B5E960MgdcIUYrdtLruIRkYJo8bKhiqB452/yx4Ttukh2uy6Sc91gI/fRx0Up+GyJUXbggChVpWUGPMJvfoXrgsVNISK069atEwUrk+PbeBi/3HEt2HSk/RkjUagxH1iKqJpXVznRPDRnRGdIERUdcRNppxrs8RRRNZEpL/GE7fEWRaH+HkVUaP1VsLkpooItqbPzpWQkyks8rV+/XpQ35r5hjBs3TpRePXsawSrtQPmg5MO3oUWiEKm6fdTtouCtMUakzm4MgVIQT/AfrDeEO7YZM2aIMnrU7UafjAxREIHC3JxgB33mi65IwzcLJ94/UZRPP/3UOHDggCjl5eUGHu+jvgP5Rbz2V5WViVJ+4oRRtulrUQr+OcfIGTValNze/Wtw3tbDOlFYody1gUQUxAtsqOIH+aN1PM7jWvxO9GwLyf6jUjO3K+vigaLkjL/PKHjjTVGKvt1iVGRli3Kmdk0o+Iff/AnXBX/Py8sT5fvvvzfemDtXlHvuucdo3bKVKIHGt0D7I+3XGIlCzTWhxSDoPsajiOLSB425JTpB+A9FVHRFTqSda6DjKaJaiwopVzwhTRHlNQGeIkqFFEVUw6NDSkai8BjGnQOFCNTYsWNF6di+gxFIWYe6P/wIVM38KESWvOyFbdOlPsjXo3sPUf485g6DEamGG4XXVveObefOnaK8//77xoQJE0TB23iBBnXuj48IQwQQ9dKlU2dREDn8/rvvRUmUuVFVpaWilO8/YBSvXCVKnr6pN+1Jyb1qUA0duktuh+4mnBCFCkdEuZEepBGZCdbiONcGezzyucd7pZE/cgsRVWuHDJPsIcMk/8WXjNKVq0Qp27/fqCwuESVR/uFLFvis2YcffijKgw8+aAy+YbAorVq0NDDetbigudQH2y84v5nUB9uRN9J+j5EoH3gWRRRFVDhuSBEVH9ETaSfrHk8RVROBgpBC5Mm1XpGoaImUWJ/HPX/k4gmRKYooiijvESOlIlF4fLd//35R8PgOb+HdN2GCKJf0v9jAK9Jup+z3dKDr7tapqyh/ueMvxksvvSTK8v8sN/bs3iMKnpHj8ZW3GyX3HognfEsKEcyVK1eK8tRTTxmDBg0SJVD5+91/ku363PpIT2srCuY8frp4sShYFwc3Wah3eDce5yIdb4vfr3tbLytLKrKypPibb43CeW+Jknv3eCOnzyVi/ClNcs6itUAwNWSjJz4gQmJjXdGEdPSvv1ZEDbhMsgdcJrkTJxlFixaJUrFzp1FVUCCKOxcq3n4S6PfgR4hAZWVliYJ17l599VVRLht4mZHRK0OUZuedb6B/aN28hdQHEaIW5zeT+iA/9sNie6gWx+Mt6G+//VaUnJwcA3MbA5VDtPZTRK1fLxRRFFGNNSgMphRRiRmJooiiiIpMWFFEUUR5jxBJLaLwyiYiUHgLJ1kjUEEr+vNbSMvzW1g0SiNSY/8y1nj55ZdFWbFiheGuI4WIFO5kvN0qOfbg74QfYWVy3PnMmTNHlNGjRxtYRyzoemiWmKIk0f++rp06i3LpJQOMF154QZS1a9YYR44cEQV36vBm+APSTWURicLcKMzFKVm1WpSC518wcofcLEpO14wamqdLTvP0urfMwhUWiF4FOj7YyBDOBxvovHHf36GrZHfoKrm3jzHyX5khSslX64yq4ydEkTNnamgqxwjyd+HHWNoG/fzHH38syoMPPGh07dJVFMyFOv9P54mCKBMiQrDoF5qfd77UB9vdfNgeqsV5GIkKssIjyYbBjyLKGawpooJyK3Q28COKKMePElQEUkRF9ngtWLFDERVUNxP3TOjXKKKiU/RJHYmiePIY9GpFlEaj6kek7rrzLlHw1tLKFStFwZ0KGh1Wdo6OCzb9WdCpuFeC7fAjlAPu2B6aPFmUSwcMMPAWSqh3Vszv4acxEmm4k76kf39RRt12m/Gvt94SZceOHUZubq4o8Hc81oVfuP4SrzR+H99kq8zJFaX8xx+NokUfipI7abKRc9nVYlzYVXIu7BpyJAqiybVeESGIJ9e6+d3zIe3mQxrnQzrmtnV7yW7dXnJuuNHImzpNlKLFi42yXbtEqSosNOJV/5H+Dp4oYIkWfEvyueeeE+WW4cON+m/Y1f8/2k+4NtL+jpGoSD0ghOMx+PExnjNIUUSd5UUYlM7aKBqZP2PAjyiiHD+KkciJtJMNdDw6f4qo4CJSEDeu9RIxEDuudfO750PazYc0zod0zC1F1FlLFUBIof2EawO1z0D7KaLckSqKaTx2waBH8eQx6DkiChGpi7r1EGXcXeOMV2e8KgreQoOIwFt7uEOPYhXG9VQQSV4RBrzl8fvvv4uy5r9rDKyvNWTIEFEubNvOYCTKw998JrbQ+eNr9Hhb7/HHHhNl9erVBt7CRH/i5Sdxddp64h5zo6rLy0WpOHrUKP5qnSgFr7xq5I4cJcr/5ka1k5zm7ere0AtVjEDswLrHQ+y41s2H413r5kMa50M65vbigZJ98UDJnXC/UThvnihl335rVJ48JUp1RYWB/iTe/hDs7yECVVpaKgq++fnOO++IMvYvfzH69OkjCt7GQ78Gi/ZTf96T/h/bXRGE7a518wWbpogKtsbDyEcRFeQgRhFl3oVOz2twpIgK0p98JpICdcbozCmiapY6CFWMBBI9EDuudX/HPQ/Sbj6kcT6kY24pokxIQTzBov1QRNWIlKSaE4U7Rq8I1MSJE0VJ9HWgAg0SAfd7iKi0lmmiZFzUy8AHW+siUrVzpLCeDuZI4Q4nDN3bpIdARMHiYiCqsO4IviU1b948UbC+kNc3FQOWf4KJjmT7ezAIwHZMby/KzcOGGbgzx7o5J0+eFAU3afAP12/gP7G2+N06W1UlZ6qqpLKgwCjd+bMohR99bOQ+9DdRcvoNNPLSu4pxfprknZ9W9xkYV8RAtMAGK1qQ38u658Hvwrr7vc6D7W7+iNPtOkt2u86Sc/MtRv70F0QpWb7cqDxwQJTq4mJDqqtFQX3Euv7DPT8iUKdOnRIF3/yc/txzovTv19/ocGG6KGgfiPzAoj/AfogppLE/VhbXwbfzwvWERo6jiAoyckARZV6ETg8WroVBkiIqSH9KMFGIzh6WIqqNCSlXxECkwAYrTpDfy7rnwe/Cuvu9zoPtbv6I0xRRFFEYDIKwCR2Jwp1hsOIJ6/i4i+/FSjH79rwBRFR6WrooiEhhjhTe2vvyyy9F2bdvn4EVnpNljlRJSYko+Ps+XfypKJMfnGxcfdVVouAbiAhzw/q23hNM7MSqHCGeYLHkAR7v4Q53yZIlomAuIPoZRF4hvmGD6G+jkgW/51rMjSo7elSU0o0bjfzXZouSc+toI79nHzHadpL8tp0sGqURKVfEQKS4NpBIcfN7pXEe/C4stsN6HY/tyBc1O+AKyR5wheRN/qtR+P4HopR+/71RlZMjypnKyhpqX0CJSuXG4CTwVyzR8tNPP4ny/vz3jfHjx4uC/gztAu0PkR/XYr9rg83nHhdsGudHO8W6fbjpxTSMGBRlg6ekiErFgYUiqsHGgEGJIio5I1DopDFIwFJE1TzWc0UMRIprA4kVN79XGufB78JiO6zX8diOfFGzFFH2KA/tBaLFtdjv2mDzuccFm8b5KaIaHMZC24g7w0BzoBCBgg22spI2XwARhblRbkQK60jNmjlLFLythm8RIiJVVVklSqL9QyQNc2A2bdwkCr4tePVV14jSsX0HA5En1yat3yTJDQfEU1rLVqIgjUjUtddcI8qsmTONr7/+WpTjx48bZaVlouCxL8R3U/s73tbD3Kjy3XtEKf78cyNv6hNiXHu95F17veR27GHYm3oNvK0HkQIbrEhBfi/rngfiCdbd73UebHfzh53GkgaYC/XiS5L/4ktS8sWXRvmBg6JUl5UZfv9GHiJQmAuFfnrZ58tEmTJlinHD9deL0uKC5gZESqxspP0jrosiKgo9DkVUmBEDiqgGvY8iKkx/SjBxBdFEEUURdZbgooiiiGpwZGh8Y0I+zgtXPDESVTtIBimisH4UIlNYRwoRqX/+85+i4C0Pd10d3Ak17oJNvxdz67Kzs0XZuXOn8dFHH4mCtzpbXNBSFDfy5KYjvdPi8bEVcxBReIyHNCzWjbr3nntEgR/8/PPPovh1JXN8uw3rFlWcOiVKyXffGwXvvidK7rh7jKze/cVonS5Zyh9aGmcJiz/+b0FORIpc6+bHeVzr5nPPg7Sbzz0P0m4+pL3Og/11tnlbyW7eVnIvqEXXhLp4oORNfsgoWrBQlLJt243K7GxRzlRV1+DzuVCIQGEuFOYOYW7r9ddfLwq+kZfWuo0oiPTEykbav+G6GImKYOykiIpwkKGIOsv7KKIi9KcEjURRRFFEUURRRJ01GISRSIhIFOYeQDwdPnxYlPXr1xtvvvmmKIgY4O0pN0KAdKRKOOGP9xBRbuQJESh3e5+M3qLce8+9xuzZs0XBN5gOHjgoCuoLc6T8MncE14FIGR7jYWXyFcuXi/LEE08YQ28cKgrKIeHrP8FET6zKu1P7DqKkt21nuL9z5eVXiPL8888bbsS1uLhYFPRP8Ksw+uGoHoK5OpWFRaKU7d9vFK9YKUrOc9ONrKuuFSWzWZrhRngQ0Qlk6yI7tVErnAfW3R/q+dzjvdLueb3y5f6hjdQnr1V7UfJHjjIKXpstSun69UbVkSOinCkrq0HXhNK1oXzyD34Hi34NEdPdu3aJsnTpUuP+++8X5bJLLzU6d+goitdb64j8uNZtL0gHmw/5Q7U4PyNRITggOikMyhRREUYOKKJsYTx0NhRREfpTgooyiiiKKBVTFFEUUSHIkXOyNmkkCsr5nKuq3YBBDuLp98OHRfGKQGHOEyJOXjZU5Zt0+UMUUW5EqlunrqJgjhRWNsccqa/WfiWKG5EKVN9efhCr7WVlZaJgLtQPP/wgytzX5xrDh90sCtbLYiQqucQW7ry7de4iitvOEaEaO3asKB988IGxdetWUTIzMw08DvaLf+M66uZGZWZKRWamlG3bZhQuWCBKzoT7jeze/cWoN/+pfhQn2AhP/WP8/H9EofKaXShKfv+BRuEjj4lS8tkSo2z3HlGq8vMNzDmrs7HqmII8L+oZFsEGzIU6cuSIKBs3bjTmzp0rynXXDjJ6dO0mStvWbQzMCXQt2gUiQEh75cP+WFlcByNR9T6k6eUzFFExGrQooszlKKJi5F8JEpmiiKKIooiiiPLSH8Fub9JIlNdFQlEjAoW3vjZs2CBKqHOg3IhUrBRywpw3gIhCxAURKNdi/ahO6R1FcSNSs1+bLQoiUr8f/l0UrK8DcexV//Hajm//YUVqrFD9t7/+TRSUA/4+pBOmnhNEzDR1eSLihMd77vUMHDBAlGeeftpYsWKFKHv37jWKiopEQb8VL/8N+DtnzohGTfCNt6qDB0Up37DRKH59rij5I241ctO7iILIE6JJmNvkZZEvkPU6Htvd493rwH7kD2SRHzbvj61Fyf9DWg3dekt+t95SfOfdRumbb4lSsWVLDbVvN1aVl4uCuWaI/AQs/xhnwHXA7xARRWR9+/btosyfP9/AE4OLunUX5cK0NAORHTeyhDTaA/Ihjf2w2B5ri+tgJKoRB4NTUETFKFJAEWXeRxEVI/9KMPFGEUURpUKKIqpZ3cKzEEZqIYogXpCun6d+PuyPlcV1UEQ1IKKgrPHWizuB/PXXXxcFb+G5EaZg07Gq3IQ5b5AiCpEXNxLlbkdEChbf2pszZ44oiCDiGT3EcbwjUhDnmEh+7NgxUb766ivjxRdfFMV9Gw9zwPB3J0w9J5iYaapydR/rIY3rQfr2UaNEeeONN4wtW7aIghXu8c0u9GMNdHFNs6myUqSyUqqys2vYu0+q9u6T8v8sN4qmTBUl75LLjZw2HURBpCfz/7UQ5fT/1/wssB35EPEJFEHCca71Oo97PuRzj3fTyOdeFyJRhYOHiVLy/ItG2erVolTsP2BUFRWLgggU+g+/1C+up0rrtrLSoqEaEcWTm1WrVony9NNPGxf16CFKhwvTjdbNW4gCP3dFEdLY71rsh3X3xzn0PcwAACAASURBVCpNEdVINwLnpIiKcYSAIkpUSFFExdjPEkTEQSRhgjnSGASQpoiiiFLhgnGqkaEsLrsooh4VjUZhEdGU/gAxnBLiCev1bNq4UZQ35r5h/OWOO0QJtA5UoIgUOseUtSGKKERgEJFC2rWYK4U5RBPuHS8KIlJYRwrfIEMkCjbWPQ9+Jy8vTxR8zfy9994TZfToMQauH38f/i6kU9ZvEkQUhVs/gR7r9evTV5RHHnnUwBy6Xbt2iYLHw/CzWPtzsOdHJKWqpESUysxMo/z7H0QpnvO6kT/sFlFye/Q2EMFBRMeN9CCN/ciPyBEstsMiP46HxXbkw/GuxX7kx/Guxf7s81qLknteGyOnTSdRCu6bZJR8+JEoZTt3GhXZ2aJUV1YaGJ9ggy33WOfD9eAFmdOnTouCt4zfffddUbDyPr6NF6h9xDuyFOh63P2MRDXgWXAGiqg4RQYooiiiklwQuR1vMGmKKIooFVIUUTVzo4JpM02RhyKqnohCOBJvt2AdqE2bNokyb948Y9y4caK0adXaCBRpCrS/KSreV78Zpoiqi8R4HI9IFeYQweJbe6/OeFWUr7/+2kBEKl5zpPA7Bw4cFAVzBqZNmyZKx/YdDVw3/l78XUj7qi4phurmdESrXvCWHh7j4bz4YPHNw24WZdbMWQbWrTvy+xFRsE4P+rd6XV6T/re6qkqUyqIio/zAAVGKli838qb8XZTcK68x8tK7ilIXwflTa3tzz40E1UV8ateZciNH7vHYj/N4WeTzsjgOvw+L7XW2NhKF8+TfMFSUwpdeMcrWrxel/Ngxo6q0VBS/1Z/rPIh4IgKKt4w///xzUeq+uDBkiAwdMsS+i1f/23jw60SzFFH1PAFOShEVpwgUBlwPEVQnEsLcD7EBEQJLERXn+kU904YlsCiiKKIoovzbZ1FEidQpfIinw4cOi4K3uLAO1N133y1K185djEARpmD3J5ryjvr1himSQhVZmEuECA8iiljZHPWNiBTurOrp7Kj8F+fF72zevFkUzNXCXKjmzVqIguv2/HspTsISJ1H34xjVAx7rweK6MVeke7ceotx33/3GggULRPnxxx8NfLMMfofpCrBRceowToLfx1wfPLYq2blTlLwPFtRw512Sd+ddUtC7v1GU1kGUwuZtjYLz0kTBukuIAMEiAoTIT975adIYbqTKPR7ngUV+12I/rLsf11v08KOilPx7sVH+yy5RqvLyjDNVVWKcOWOTyMMo6rgcUlJSIgreesa3HV955RVRht10k9GxQ0dRNAql4K08WPh3oliKKIqoph+AKKIoomIkQBKlI27sOiGeYJGXIooiKi7qKMgfoYhK4bfzMDcFChpzoLD+yl133ilKx/YdjGAjTMHmQ6eYsjZOIgqRnK6du4rSr28/47bbbhMFEalYzZFCJAD+9ssvv4iyaNEi4/777hfl0gGXGohE4bpdi8eVKes3KSK8cKfbvt2FoiANEXXB+c1FGTjwMgPr8HzxxReiYH07vDWFCBBskGNkzLNh7k/5yZOiFH/9tVHw/POiFA0eYpR27ilKSat0I1AkChEpRIQai0LpPkSMkD/cSBTOA4vzIY1IVPFb/xKlbMsWo/LECVGqdR6UUlVtoAL8Vm+YBoO3jPF26CcffyLKfRMmGHgbDxaRqDYtWkp9Eq0/Q3tM6cU2MahRRDXRc2eKKIqoFBFE4QwQ6KQpoiiiVEhRRDXROOXRR6F9pqSIwlsrmJuCCMTb/3pblNGjRxv4VlU4HSCP8ZfDN1QfF/e/WJTx9443sBI91gU7evSoKPCXQJ2Yux93aogEuP42duxYUW4ZPty4pP/FojR0rfW3uW9r1d/H//vf71BH6ISRRoQJaezHt8XcuSPYjnWjxt9zryjvvPOOgcX/Thw/LgpWMvdbZONMVbUoVQUFRuXuPaKULFpk5Nw/UZTsy640cv/YQpS8P7U8C2zP+UNzUZCGdfMjIuRlc//QSupzTj7n9885P/a3SZc8pUP3GsbfJ3nj75PiVauM8oOHRKkqKjJQHqgnv1o8xsM3SfGN0hkzZohyy/BbjDat0kRBhD2tdZoo8G9Y+H2iWFw3RdTx43WvulNEJc4AFI2GRhGVWvUdDZ+J5jnQCeOcFFEUUSqkKKISo19C+00JEYWIACIKiAjg7ShXPGFOEzo32sRw6lDr6cK27UTp17evgbf2MCfum2++EQWfZcEirPAn9w4R2zEHCt/Gy8zMFGXr1q0GViYfM3q0KMOG3mT079tXlEB/ByJRsIHyR2t/vH8vWtft1/OgE4b1ElHt2qSJ4hWJ6tGtuyiDrr3W+PuUKaJ8unixgbkqmL4Av3Ujp9jeVLa6rEyUqhMnjLLN34hSMONVI2/IMFEQWYrYOpGm+lGnhv7vRqKC/v3e/SRXGXCFUTD3DVHKduwwqouKRJGq6hqaqgKC/F30b+jXtm/fLsr7779vYI5nr569REEEChaRKL+2y2CvC+2WImrzZnuEV/8xHkVUcoomt3FQRIVWzxRRoZWX629uGp0wLEUURZQJqSDFTFNlo4iq6QfQblNCRKHSs7KyRME6Km4E6tIBA0ShiIruYOEOHn5Jo55hEZGaMGGCKG+99ZaBiBTmSCEi5d7JIxKFt2pw548VfD/77DNR/j7l7wbmQl03aJAoF3XvbniVD0QMXnlH2is/tgebD/m9LM4D65WP24NrP+iEYb3KDfthkS89ra0oXTt1NuA/w2++WZRXXn7ZWL9unSgnTpww0B9iEHb9GNvjbfFtvcr8fFHK9+83Sj5fJkrBhPuNvA5dRQk6ElQ7h+qc/CFGos6JTnmd19med8ONohQ++ZRRsnKlKJUHDxqIROHvj3e5h/p76P/27dsnyooVK4ynnnpKlEGDrjMQefKy8ONEtWiPFFH1JpJTRAXX+Seq07vXDfEESxHVeP1DPMG65cl04+Xnlg86YVh3P9LYD4vtFFE1E8zPEUeOiPHcTxEVqn6y/BRRNe0c7TElRBTmQiEStWbNGlEQccAg6lp0VrShDQ6JUl5ufWM9sMsGDhTl/vvuM9yIFOZIwa8QeUKPhDt93PlvWL9BFLy1gm+eIQKFt0ARYfIqP4gX5EM6UP5A+byOd7fjPLDufqbDayfojEO1bVu3EQVLIKBeEJHCOj0fLlokCtYnKygoEAWRU79EouraT+0346qys0Wp2LrVKHplhij51w82clunixGsaHLzxUlE5U+cJErxRx8b5T/9JEpVVpYh1dX6+Qz8+b61mON56tQpUTCn+I033hQFn9XymgvlRqQSvb9Ae6WImjCh7vGdO6gmeiXz+hsf1Nz6pohqvLwwSMPSvxovr2DLB51xqJYiiiIqnoqLIurs9o72mlIiCm/lMRJ1tjME29knW742rVpLQ7hiauLEiaJgDh3W34E/Ye4TIlC408edP1Ym/+tDfxXlwrbpBtaFQuQgUPkiAgXrJWaw3bVe5w83H47zOi+3B9fO0BkHa/GWnmtRHx3T24sy9MYhxksvvijK2jVrjEOHDomC9cswEPslIoW5QdUlJaJUHT5slH6+TJSChx81cvteIkr2H1sYno/t3AgU0rGORHXvJbnde0nB1GlG2cZNotStTI638lABPrf5+fmi7Nm9x1i8eLEojz76mHHl5VeKgv7NjTy56UTvH9BeKaIYiQr4Sn2iO7vX9TckoHQbRVTDgz8Gadd6lS+3N1yObrmgMw7WuuIJadQLRVSQc6UookKSbRRRZ7dntFeKKIooiiiPiFTXzl1Eufqqq4xJkyaJ8vbbbxvfffedKIcPHTZOnjwpyt69e43Vq1eL8vLLLxu33TZKFNyRdWrfQRQMfu7g6qYRgYL1Og7bXeueD+lg83nld49HGvlpz+58UR5eSxpAFKGTRn5YbEc+WJQ7Jpz369NHlPH33mtgfbLvv/9elOzsbAMRVL9EojCyn6mqEqU6O9so37FDlKJ33jFybx8jSna7joZvIlHtOkpuu46SP+F+o3DBQlHwtiEibIkyFwoRS7ydvG7dOlEwxxP9GuZCdWzfURT0c14W/pyoFu2QIooiiiKKIqpOyOlAHKhTw2AdyAY6T6rvp4iCXGrYUkQ1XC7x3koR1fBNEEUU384LOFgm+yCHieV4rIfFN/E4D2k3IvXQ5Mmi4Gvl69evFwXrSa1csVKUWbNeM+6++25RMGcAd2bBli/ECiJQsNjungfbXevmQzrYfF753eORRn7ahjthLxGFzhnlhnyuxX43PyJRWD/q6iuvEuWJaU8Yy5YtEwXr/OAbaIhEwcZ7sPb6veriYlEwl6hswwZR8p962sA39bKbp4lRO0cKc6W87DnrPoX6eA9zqxybd/MtohS+Ntso/uZbUcpOnjQgDr3+Xr9sx9ubiFhiZfL5780X5YEHHjCuvupqUbp27mowEpUjOTk553yrMtb1+n+x/AG8io6JwJxY3nCnjk45VSxFVI0fQPTABqp/5AtkA50n1fdDFKEcIIZgsR35XIv9bn6KqJqJ5l7iCdspohofdSmiGh8n0e74OI+P81I2IgURBYsIFCJPiERhf6+ePUW5aehNxhNPPCHKrJmzjLfffkcUpPENqUsHXCoK7tTCjUS5ogWDqGuRz93ulUZ+WK987vZQ87vHp3raFUWB0s3PO1/q4+ZHeSJS6drbRo4UZe7rc41vNm8W5fTp04Y7N8ovEanqykpR9OO8StnevUbhog9Fyb1znJHdoasYXpEoRKpqbbgiKvuPraSGs8VaXvdeohRO+btRumq1KGWHDxsVBQWiJMq/oqIiUfbv328sX75clKlTpxpDhgwVpXdGb6NH9x6iMBLFSFTdulHolGgbV+SJWj4QR7AUUa1tblSw9UkRFVm7cEVQoHR9AaX/d/Oj3lzxhDRFVO3jPoqooHQcRVTj7ZuRKM6JStkIFAYb12KwwVtz3Tp3EQXbYTN69hRl1G2jjPvG3yf1wcq911x1tSgXdethtDy/hZxFs8YbKUSKa93rjjQd6/NHen3JfrwrhpAOJJqQz7VpLVuJ0apGFHfv0lWUwdffYDz8t7+J8tFHHxlY9weDJiJQsEGNuDHMVLduVHm5VJeXS/mpU0bRhg2iFMycZeT++S+i4HHdObZ1umQriEjVRZQQWQrOZv2plSinzmthZPXpJ0rB0JuN4tfnilL+006jsqBAlKqKCiOGRRWVU9ctqnnylJw6eUq2bPnOmDdvnihjx441+vXtJwoi7FgfChYRdy+b6O2aIooiiiLKETEQSRRRjYu7RO/8/Hb9rghCmiKqRhNQREVFGwV9Eoqo4Po/iiiKKIooR0S5g6srqiCuYLt16ir1QcQJ9qyokxuF0nSA32eEKLjOLFA5Jvt+V3S1adFSFESk8G29jF69RBlz+2jjheefF2XdV+sMjToo7tyooEffGGes0nlRlZVSqW/qFRdL6b59RvHSz0XJ+9sjRnb3XmIg8oQ5UohAwYYbiWreVrKat5XTaelG9o1DRSl64kmjdOUqUSqOHjWqy8pE8ds/r0gjvsCACOWSJUtEwVyoa6+5VhQ3AuUVcfLanujtkiKKIirgIJ7oTh7p9VNEUcRE6kPxOJ4iiiIqHIFGERVZ/0YRRRFFERUgEoQBEBEhiCrYtJZpUp+AkSc3GuX8vufv1M5twfXQRtb5JWr5odN2Lf4eiCnXwq86d+woymWXXmrcOXasKAs+WGDs3r1bFEQiEJHCq+7hDNTRPAaDflV5uSgV2TlG2bZtouT/859G9shbRcnqd0kNf2ohWfVpniZZGo0KMRJV9zbfBW0l94K2NW8Cdugq+RMnGcULF4lS9tNOozInRxQ5c6aGaBZGFM6F8sSpUN+ISGL9u5kzZ4qCuZ6IQLVplSaKV6Qp0Hb4baJatEMuccAlDiimHDHjNmoMQhBPsPUFlP6fIio1xY3rL7FKo9N2LX7PFU9Iw38pomrFFEWU6SaKqMj6K7RDiiiKKIqoACIKgxQGI1dEhSyeaiNSOJ9r687PCBR9sxHfRCcO/4Roci32t23dRpTuXbsaVwy8XJTnn3/eWLt2rShHjhwxsEixXyJRiJhU6/f0lIoKo/zwYVEK/7PcyP37VFGybxlhZLVJF6N+NOpPusZTcG/jIZ8bicq9+FJR8l98ySj+erMo5SdPGpUlJaL4/R/EFCKQe/bsEWXRokUGvhk6aNB1ogSKMAW7H36ZqBbtjyKKIooDVSMDVf0GDrFTJ3JqH+dRREV2R1e/jPn/4MsSnTjKzBVPSGM/RdTZj/UgjoK1FFEUUWhLatH+KKIooiiighRR9RuQ/d+d4xRkuu4xYG2kyRVndSKNkaiU8E2InUAWSx4gn+uP2O5a5IOI6nBhuigZPTOMCfeOF+Vfb/3L+OGHH0TBN9MwV8Y3ERVnjlFFTo4oJT/+ZBS8+54ouRMnGVk9eolRu74T1nkKVjydk++yqyT7sqsk946xRv6iD0Up2bfPwNuDZ6rPiHHmjGi0x6//3A8MYy4UIpQ3DR0mClYkDzbSFCgf/DJRLUUUJ5anxAAV0wYapGhyI1UUUcFHW2Jaf+GK5ygf54oerzRFVK0MoYiKqh6jiAqvP6KIooiiiIp0MIyyiEJECjYVBAT/xgvO+XxLIBEVqphCGaPTb9cmTZTunbsZ1w26TpRHHn7E+HTxp6IcPHjQwCCLuVGYQxPVkTyCk1WVlopSduKEUbR+gyi5L7xoYB2nrK49xaiNSJ0TYfKaI9W8rWTXI3fsXaIUPP+CUbhxoyilp08bKCf8SX4rL1wXbF5enijbt2833n//fVHw7U98Gy9QZCnU/fDLRLVoT3ycx8d5FFPhiimKKPpOuL5T7zgv0eRuh3iCxX53EMJ2WOxHp08RVfPZFoqoGhlFEcVIFAS1p8VbJsePHxdlzZo1xoQJE0TBB2hdi86HNjwnS/pyC1NE1T3eqzeQhlNWiFjBhnOOYI6J9fmDuQbmCb4NQjzBouwgojA3qn3bdFGw6v6NN9woysxXZxrfffedKFlZWUZFRYUofous4LMwlcUlohTv3WvkLlokSs6E+43sqweJoquNKyGLqNq5UPlPPCVKyZKlRunevaKUFxQY7kDkt/LC9aE+jx49Ksry5cuNadOmiTJkyFAj2G/hMRL1rXz77beSk5NjlOt3HsvLUdwxt/8Xy1+giAq+A0aHSxtEmVFEMRIVoRCORTuDeILFb1BEUUTVH2cpooLo4xtp32hPfJzHSBQHwkYaCgagBq1PRFSwb/MhogTb4N/UQFkgP2ywxzFfcJ00OuNwbbDlfM75m7WUVs1a1i0Sm56WLsrE+yca+Gba3r17RcE6QvUHYj/+vzQzU5SCr7828l9+RZSc2/9s1EWiWreXbMVrLhS242282rlQ+e+8I0rxtm1GeWamKFhJ3Y9lUv+aECHBY7wff/xJlNdff924deStosRqLhQiVsH6rV/zoT1RRFFEUUQ1IByCargUUfSdcH2n3nHojMO1QflqvXVt6n6HIooiKi/PBBRFVHA3PPXbGtoRRRRFFAfCegNa/Ubi1/8jIoQIFCy2e1039sN65XO3Iz+su5/p0DvgcMoMnTZsqOfAcbB1c/Ocm4Fbht8iyvTp0401/10jCubO4O0zrB/ltzk/FcXFohTv2m0U/XuxKPmPTzFyrrhGlOwuPWr4o65e3gAdutr38XKuvU6UvKnTjIL/LBel9OhRAyuT+60c6kef6v+/oKBAlN9++81YsXy5KFOnTjUuHzhQFLb3xts12hFFFEUURRRFVKM+gM4UNtTBm/kb74yDLR902rDBHod8OA6WIooiSoUURVR47RPtiCKKIqrRARQdMG14DS0W5QYxgwgUbKDfwnGu9TrOzYe0V35u94+PNFQX6PRhvURU/z79RLljzB3G/Pfmi7J7126jqKhIFL9GovC2XnlWlijF331v5L3xpihY5ym7Z28x3ChU8zTJVi670sgdd7cohe+8axRv3SZKRUGBgXKoH+3xw/+9ImOnT58WZcOGDcbLL78syuhRtxvdOncRpSEf4rb/tXG0I4ooiig2liSJRAXq4CCCXOt1nJsPaa/83P6/DtaPZYFOH5YiiiJKhRRFVHjtFu2IIooiiiIqxUQUIlfBiqJg8/lROPCaGhkgnLlQEFUXdeshSsZFvYxnnn5aFEQusN4elo7xQ9RFr6Eu8lL7WZiqigpRSo8cMQpWrRYF6zzl3HSzKOfMh6qNUOWMul2UghmvGqXrN4hSdvSogfP75e93rwNz1yorK0XByvOYC/X+/PmijB071rjy8itEYZtppM3UGysoovjZFzaWeg0ikToOiBqIIdhAf4N7HNLBHhcoH/cH1/n6ppwooiiiKKLCHgcpoiiiwnYe3wwCCSqCIi0/iB+IJ6QDnRf5XBvoOO5PMHEUbLvwEFFYwRyRqb/c8RdRFnywwNixY4coWJnZr3OCEJnB3KWiHT+KUvj2O0buxEmi1EWiWqdLdut0ybn6WgNv8xUtXSpK2d59RlVxsSjifAgZv+cXi8hcSUmJKCdPnjQQUXz6qadEuaT/xQb6E7b34No7RRRFFEVUsIONz/JBBKHTQzpQ54d8rg10HPcH16kmXDlRRFFEUUSFPQ5SRFFEhe08CTdY+EwERav8QhVDbn6ko3U9PE+CiS0PEYWVyxGJuvLyK0XBOkLLli0T5eCBgwYiHYh8+CUSg+vASuJlR46IUvLfNUbBqzNFyb19jJE94DJR6uZCzZ4tBbNnS/HXm42KrGxRzlRVGTi/3yzqARHC7OxsUbZt22a8++67oowbN85gPxBeu6WIooiiiEpwcYXODzaQiEE+1wY6jvvD62R9X24UURRR48ZxUc0wxwGKKIooiqgwG0+0B0eIGjyeg8X2WP1etM/L8yWY2PIQUWkt00RBJApzpIbeOFSU2a/NNrZs2SIK1h3CN9n8EplBRAaRo4r8fFFKf/nFKPz4E1Hyn3rawPpReY89Lkrx0qVGyW97RakqKzNwXr/8ne51IAKFt/EOHjwoymeffWY8/PAjotw4eLDBdhteu6WIooiiiKKIog/4xAeaZCCjiKKIGjyYfUCYfQBFFEUUG0+YjSdaAx4iTYFstH6P5wnvjjNpy81DRCECBYs5UrCTH5wsCiIbWMk8Ly9PFERC3AhJU6UROUJEqvzECVGK1q83Cv/1tij50583kC7buk2Uiuwco7qiQhS//sPfiYigOxdq5syZogwadJ2R0bOnKPBv9ENI0zbeX1BEUUTVNR42lsYbS6zKB51WIBur3+d5m6befVPuFFEUURRRYY+DFFEUUWE7j28GgSaOJEWrHCCiYj0XKlrXy/MkifgKUkRhjhTs8GE3i4K5UWvXrhXl0KFDBt7W82vEprKoSJSS3btrWLNWStasleLly42Sb74RpeLoMaO6vFyMykqprqz0659VFwEsLCwUZf/+/caKFStEefDByUbzZi1Ecdsx+h93O9MNt3eKKIqocxoRG0vDjSXW5UIR1TTlHut69f35KaIoourdiFJEhdYPUURRRFFE1etAfD/g8Vrpr9H2gTBFFL6pd9/4+0R5//33DaxDhLk4fpsbhRAS1o0qP31ajH37pLweZb//LkplYaFRXVUlil//YS4U3sbDyuRff/21KLNmvWYMHnyjKG1apRlun4ebOXc70w2LK4ooiigOStEelHg++lQi+QBFFEVUPX+liGpYLHmJSIooiigOePU6EK+Gwu2hdSwsrwQqryBFFN7Sw5wo2D4ZvUXBN9hWr1otCuZGFRcXi1JdXW34JZJzprpalMqSkhpqI06IPGG73yNQKE9E/AoKCkTZtWuX8cEHH4iCbx/26N5DFK9IFNtuaG2XIooiiiKKIoo+kMo+QBFFEZXK/h/h304RRRHFATTCRsQ7t9Du3FhePiuvEEWUG5FCeszoMaLgm2zff/+9KKdOnjKwbhHm7rgWEZV4W0SavGy8ryfY33PLDxG/o0ePibJ+/XrjqaeeEqVXz15Gx/YdRfF6O4/tM7T2SRFFEUURRRFFH0hlH6CIsgnjFFGhiQeKrZryooiiiOIAmsoDKP92+n+YIgoRKNiBl1wqCuZGLV2yVJTdu3cb+fn5omDuDuZIIaISbASG+WpKAOVXUVEhSmZmprFjxw5RFi1aZIwdO1YURJ5cSzEUmXikiKKI4iBCIUEfSGUfoIhKSF1GERWZ+ImWeKSIoojiAJrKAyj/dvp/lERUt05dRRk5YoTx2qzXRNmwfoNx/PhxUbCOEZQLIlGw2E7bcAmgnCorK0UpKioy3JXJMRfq2muuFcWdC8W386IjwiiiKKI4iFBI0AdS2QcoohpWKz7dShEVHfHDSFQYDl5aWioK7ojWrFkjyoQJE4zmzS6QhohWYfM8/nJ+1gfrgz5wgWBOU7Rsp/SOojz4wAPGvz/5tyi//PKLkZeXJwoeR0EUuDaMLj4lDkG5lZWWinL69GkDb0POnTtXlFuG32L0zugtihuJurBtuihsA5H1g4xEUUSxEaVyFIJ/O/0/SpEoiDCKqNhqOYqoyERPtEUjRRRFFAcRnwgJfm7BX51jtDtb354vQhGFlcshomCHDR0myuzXZhvr1q0T5ffffzfwZACigJGoxsUXygdzobAy+a+//irK8uXLjYcffkSUrp27ngUiT3g7j3OiotPfUERRRFFEUUTRB3ziA00itCiiGlcvPtlLERUd0RPtNkYRRRHFAdQnAygjUf7sJKPd6frufBGKKDy+QwQK9pL+l4iCuVELFy4UZfv27UZWVpYoeFsPIsG1PtEwTX4ZWAwUEbyTJ0+KsmHDBmPOnDmi3DzsZgNzoBCBgkUkCtZ3/uiT/jjYcqGIooiiiPJJo6WIoogKtuOOaj6KqCYXSMFcAEWUP/sHiiiKKIooiij6gE98IKriKE5/E8Q/LP6G9LbtRBk6ZIjx3D/+IcrKlSsNrGtUWFgoCiJQNhAnDgAAIABJREFUEBRIw2J7qlnMGUPEDm/jYWXyDz/8UJQHHnjAwNt4mPOECBQsIlCwqC/a8EQaRRRFFAfQOA02gTopdxAKlJ/7w+v0WG7RLTf4LSzKlyIqOnKPIiq6/gr/jJaliKKIoojyiYiKVqPmefzd6aZa/WT07CnKuHHjjLfeekuUb7/91sDcKHwDzpUeqR6JwrcGEbE7cOCAKF9++aUxffp0UbAyOSJOrkXkybWp5o/R/nspoiiiKKIoougD9IGY+QBFlCsLQ0tTRPn7pogiiiIqZp1ntBU/z+fvzoT1w/ppyAfwmO+aq64SZcqUKcZnn30mCtY5wrpHEA2QGohEwWJ7qtjy8nJRTp06ZWBl8nfeeUeU0aPHGFgXyo1AYW6UG4FCuqE647bg2zJFFEUURRSjEPQB+kDMfIAiKjK5RxEVvKBpCvFHEUURFbPOsykcmr/p7w6H9ZO69dOtcxdRRt12mzFz5kxRNqzfYBw7dkyUkpISw408uenIpIn/j0ZELj8/X5Q9u/cYS5cuFWXatGlGv779REHEyY1EIeLkZdkmI2uTFFEUURRRjELQB+gDMfcBiqjQhBtFVGTiJl7ikCKKIirmnWe8nJm/kxidDuspNeoJj/FQ30gPHDBAlEmTJhnz35svyo8//mjk5eWJ4v5DJArW3Z9s6bLSUlEQodu4caMos2bNMkaMGCGKG3lCGpEprwgUtqN+aMNrlxRRFFEUUYxC0AfoA1H3AYgmDM5IU0QFJ/coosITNfC3eFmKKIqoqHee8XJe/k5idDKsp9SuJyy6CT/o1L6DKFjJ/JlnnhVl9arVxu+//y4KVuh2I09uOjhJkji58BgvNzdXlJ07dxpYmfyhyZNF6Z2RYSDiFGoEipGo6LRLiiiKKIooRiHoA/SBmPkARVRoAo4iKjriBqI91pYiiiIqZp1nrJ2X50+szob1ldr1hcd5sF6LcP7www+i4BtxEBWQIohEwWJ7stjS0lJRjhw5Ynz11VeivPLKKwbmQrVp1VpqSKt7M0+jUogwBWvZLiNrlxRRFFEUUYxC0AfoAzH3AYgnWIqohmUfRVRkoibeopAiiiIq5p1nvJ2av5dYnRDrK7HrC6II1qs+8VgP+ZAeNOg6UaZOnWpgJfNdu3aJUlRUZCRr5Al/FyJuOTk5ouBtxQULFoiCtxn79e0rSvNmFxiYEwUbbAQK+bzqi9uDa5cUURRRFFGMQtAH6ANh+wBEEazX4AvRhHxIU0SdERVSFFHBiRYv/2qq7RRRFFFhd55N5bT83cTsbFhvyVlvEEWBLESTmy/jol6i3DHmDuPVGa+Ksm7dOuPUyVOiQGQgctPww7DE3YrHeL/99psoy/+z3Hj22X+IMnjwjQYiTl4WEaZgLdtlZO2SIooiiiKKUQj6AH0gbB9wRZFXmiKqcYFHERWZmGkqMUgRRREVdufZVE7L303Mzob1lpz15iWagt2enpYuyiX9LzEm3DtelIULFxq//vqrKBAZiEg1LkkSZ29lZaUoeBtx8+bNosydO9cYO3asKD269zAQYcK6UEiHa9kuI2uXFFEUURRRjELQB+gDYftAsGLJKx9FFEVUIgs5iiiKqLA7z0R2fF57ZHdfLD+WH3zASxwFux0iCva6QdeJ8tKLLxr4Ztzx48dF8VrJPHFiTzVXWlFRIUpBQYGxZ/ceURYvXmw8+uhjolw28DIDkSZEoDAnCtvDtahH2vDaNEUURRRFFKMQ9AH6QNg+EKxY8soH8QRLEUURlUiCjiKKIirszjORHJ3XGt5dFsuN5RbIB7zEUdDbW6ZJWss0aXl+C6N/n36iYF2kBR8sEGXbtm1GXl6eKF5v6Xlt91ukCpGoY0ePiYKVyWfNnCXKbbeNMtzIE9LhRp7c4wLVL/c33gdQRFFEUUQxCkEfoA+E7QNBi6VWraXBvBRRFFEJ3P4ooiiiwu48eYfS+B0Ky4flkwo+0KAw8hJMDWxHBAr2om49RLll+C3GtKnTRMG6SfimHN7ScyNPbtpvEShcT35+vig7duww3nvvPVEemvyQcemAS0VB5AgRqGjNhcJ5U8FHY/k3UkRRRFFEJfBdUCw7B56bIjAYH6CIgiwKzVJEJUf7ooiiiKKIooiiD9AHwvaBaIuoTukdRcHcqNGjbhflzTffNLZv3y4KREiiRaQwF+ro0aOirFq1ynjiiSdEQQSuY/uOoiDyBIsIUrRsMEKZebwFH0UURVTYnScblnfDYtmwbFLFByiiQotAUUQlV99AEUURRRHFKAR9gD4Qtg9EW0Tpm3r1uXzgZaJMeXyK8fnnn4uCb8wVFxeL4jUXymt7aNIn8twQT4igYS7UW2+9JcqtI281+vXtJwoiTbGKQOH8qSL2Y/V3UkRRRIXdecbKKXne5LpTY30md31SRAUnsCiikrMdUERRRFFEMQpBH6APhO0D0RZReEsPtlunrqIgUvPSSy+J8tXarwysZI5v0LmRJzcdnOSJfi5EoPAtwKVLl4oydepUo3dGb1EwFwqRIkai/C2+KKIoosLuPBlh8HfjZv2wfuLhAxRRwQkuiqjkbI8UURRRFFGMQtAH6ANN5wO1K5Uj8uRazI+6pP8lotx/3/3G+++/LwoiO5gbhcdmwUmb6OVCxMu1+IXMzExR1q9fb7zwwgui3HD99cblAweKclH37kY8BDB/I3JhRxFFEdV0nScHLpY9fYA+QBFFEZXA/QBFFEUUO/EEbsC8k4z8TpJl2MRlGEBEITKFDxTfeMONomBdpXXr1oly7Ngxo7S0VJSm+odIFNavKikpEQVvEy5atEiUu+++27j2mmtEGThggNGtcxdRAvklHqMGysf9sfVviiiKqICNlY0wto2Q5cvyTWkfoIiiiErgG1mKKIooiqgEbsApPfiy3pKj7QYpohCRyriolyh3jLnDePvtd0TZunWbkZubKwr+ITKEdKwsfge2rLRMlBMnThgbNmwQBW8XDho0SBTMherft68ondp3MAK1bUai/HHzRRFFEZUcHTEHVNYjfSAxfYAiyoQURZQ/RFEg8erup4iiiErMjpcDJuuNPpAcPhCiiMLbeljJ/OGHHxFl2efLjMOHDouCt/Sqq6tFwT9EipCOlsV5YbGkwY8//ijK/PnzjQnjJ4jSIb2j0ScjQxS8lZfetp0o7mDtphmJ8ofoooiiiArYWN3Gy7Q/Gi/rgfWQFD5AEUURlcA3RBRRFFEUUQncgJNiEGX5p3YbDFFEYW5Up/SOogwefKPx2muzRfnhhx+MnJwcUbCSOSJOiBTBYnukFufDW3lYSX3lypWiYGXym4beJAoiUZgDFWwECm0ekahQLY6njc5NGEUURVRqd+AcwFn/9IGm9QGKKJtIThEVHVETb3FIEUUR1bQdKAcwlj99ILV9IEwRhYgUvjX30OSHRMHcqL1794pSVFRkIFKEiJObxvZwbXl5uSh5eXkG5kLNmTNHlGE3DTO6dOoqygXnNzciHfSDjURF+js8vmGRRxFFEZXaHTgHcNY/faBpfYAiKqLyp4hqWNzES/RRRFFERdSA4+Wo/J2m7ShY/iz/mPlAhCKqebMWotwy/BZj9uzZomBdppMnT4qCuUrRjkAhclVYWCjKwQMHjVWrVosy5fEpRkavDFFat2xjRCsShXrxElPYTxubNkwRRRFFEcVIBH2APtB0PkARFZWyp4iKjUgKJD4poiiiotKAAzka9zdNA2e5s9x97wMRiqg2rdJEuXTApcaDD04WZcEHC4ydO3eK4jU3CpEk2FAjVYhwIeK1efM3orwx9w1j5MhbRUHEDBEoRKS86scVRV75sD3U/DiONrI+giKKIooiilEI+gB9oOl8gCKqwbIPVRSFmp/iKTLxhPKjiKKIarABw0Foo9PQWI4sR/qAhw9EKKLwll63Tl1Fufaaa41nnn5alI0bNxqnTp4SpaSkxPCKOHltR6QKFhEofCPv119/FeWjjz4yxt01TpSLuvUwWpzXXBRcL1Zed/0CYghLHiDt5mPaw5/ifENEEUURRREV50bHzs8fnR/rwSf1QBF1Vh8M0UQR5RP/DDA+UERRRJ3VgDmwJEbDZT2xnpLGB6IkohDZwUrmiAQtXLhQlJ9++snIysoSxV3JHBGmQJEo7EdE6/Tp06Ig4vXC88+LgutA5AkW1wnr1iNFVGK1bYooiiiKqAB3Gm4nx3RidXKsL5/XF0XUWX0wRZTP/dUZLyiiKKLOasAccBKrAbO+WF8J7wNRElGI9MBibtSzzzwrCr5h565kjrlNiETBIuIEW11dLQryZ2ZmivLzzz8bixYtEuWeu+82cB2wiDy51q0/PMaDhahy8zHtj7ZPEUURRRHl3Fmwc/JH58R6SJF6oIg6qw+GeIKliPJ3O6CIoog6qwFz4PJ3g2X9sH6SzgdiJKLwtt6Y0WNEefONN41vvvlGlMzTp42ysjJREHFyI1GIQMEi/4EDB0RZuWKl8dw/nhNl+LCbDcyJciNPbtqtT4gnWIoof7d5iiiKKIooRqLoA/SBpvMBiqizyh7iCZYiiiIKwj4Y+3/BZAo3T2lpqSjHjx831qxZI8qECROM5s0ukIZw7xSY9rdTs35YP/SBBPKBGIkoRHz6ZPQWBd+wW7pkqSi//fabUVBQIAoiTe74gu14mw9v923buk2UOXPmGPh2X/8+/URJT0s3cB1e1vVViCbXuvmY9oePMxJFEXXWXRAbpj8aJuuB9ZAyPkARdVYf7IonpFPGHxIsKkwRRRF1VgNmQ+XgTR+gD8TVB2IsohABwtyof/7zn6JgXSc8mcBcJ69IVGFhoSj79u0zVqxYIcrkBycbmIMVbAQK1+WWNUQTrLufaX+1T4ooiiiKqAS782En6q9OlPURYX1QRJ3VB0M8wdK/IvSvGPfvFFEUUWc1YDZYfzdY1g/rJ+l8IMoiChEeWESGrrz8SlEmTZpkLPhggSg7duwwMNcJc6Dwtl55ebkox44dMzZt2iQK5kINvXGoKMG+jYfrgk26+oyxaPFbeVFEUURRRKVYo/dbJ8TrSXFhSBHFPjiB+2CKKIooNuAEbsAUICkuQJLBd2MsojBX6aJuPUQZeMmlxtNPPSXKl198aRw6dEgUfBMPb+Pl5eWJ8uOPPxofLvpQlPvG32dkXNRLFESWQrVsw4ndhimiKKIoopJhIOLfQD9OVB+giKLvJqrvNrtAKKIootiAE7gB8y42se9iWX/Rrz9MyIZ1y3jggAGi3DJ8uPHuu++Ksm3bNgPfxMP6UZgLtW7dOlGmT59u9MnIEMVdFBO/G8i618V09H0hHmVKEUURRRFFEUUfoA8kjQ+44sUdSCmiElOsuPXolzRFFEVU0nSefmlUvA520vSBpvOBQCLqkv4XizJs6E3GSy+9JMry/yw3fvrxR1Gwovn27dtF+eTjT4yHJk8Wxf2dQGn6RNP5RCzLniKKIooiilEI+gB9IGl8wBUz7gBKEZWcYsat53ilKaIoopKm84xXo+HvsBOmD/jPB1zxhLRbV5jLdMP114vy4AMPGK/OeFWUzz791Pjiiy9EWbp0qTFjxgxRRo4YYeC8+B0vi3y0/vOZaNQJRRRFFEUUoxD0AfpAwvtAsCKGIio5xUw0BFE456CIoohK+M4zHMfnMexI6QOJ7QNeognbveq3W+cuolw+cKAxfNjNoowbN874x7PPivLarFkG5kxNnDhRFExMx/nxe67FftrE9rNA9UcRRRFFEcUoBH2APpBwPuCKFjftNfhRRCW3qPGq91htp4iiiEq4zjNWjYHnZedKH/CPD7iiKNS0V13iPHish4nmiEzdOnKkKIhM3XXnnaIMHTLEgAjD+XE+WGyn9Y8vxbIuKKIooiiiGIWgD9AHfOcDECXhWq+BE+ejiEoNkePlB9HaThFFEeW7zjNazs3zsJOkDySuD0DsBGtDretO7TuIgsgSVh7P6NlTlP59+xqIUEF04TjkD/V3mT9xfbKhuqOIooiiiGIUgj5AH/CdDwQrnpCvoQGusW0QQxRRySVqGqvzWOyjiKKI8l3nGQtH5znZUdIHEtMHIJIC2WjVLyJM+D2ILWzH72A/0rSJ6V+R1htFFEUURRSjEPQB+oBvfQBiJZCNdDDE8RBL+D2KqNQUR/CHQJYiiiLKt51nIOflfnZu9AH6QLR9ACLKtdH+HZ4vOXyXIooiiiKKUQj6AH2APlDrA654QpqiJzlET7TrkSKKIoqdJwdQ+gB9IGl9AI/lvAZP7A/Xep2X21NDdFFEUUQlbefJTiw1OjHWM+u5MR+AOPLKg/3hWq/zcntq+CVFFEUURRSjEPQB+kDS+gDEkddjOewP11IspYZY8qpnV0Rt2bJFlNzcXKO8vFyUeP37v1j+UGlpqSjHjx831qxZI8qECROM5s0ukIbwKjxuT+3Gw/pn/dMH/O8DEEcUUf6vq0RsTykpok6cOCHK2rVrDYooNq5EbLy8ZvotfSCwD7giCmmUHdLhWpyHNnBdJGMZQUQ9/thjony3ZYuRl5cnSlJGoiiiUtPZk7EB82+iL9MHGvcBiCNEopBGuSEdrsV5aBuvh2Qtn5QSUWVlZaKcPHnS+Oqrr0RhJCo1nT9ZGzX/LvozfeBcH6CIOrdM6CeRlwlE1JQpU0T5/vvvjfz8fFEqKiqMWE5Vqn/umM6JooiK3GHY6FiG9AH6QCL6AEUU/TYWfpuSIurUqVOibFi/3mAkio0rFo2L56Rf0Qfi5wN4HOdV5hRR8asLrzpIxu1tW7cRZerUqcYPP/wgSkFBgVFZWSlKvP7FJRJFEcXGlIyNmX8T/TqVfYAiiv7fFP6fUiIKs+RPnz4tyqaNGw1Gotj4mqLx8Tfpd/SB6PkAIk1eZQqRBYt8SIdrcR7a6NVlIpUlRNQTTzwhyrZt24yioiJRqqqqjKSIRFFEpaaTJ1KD5LXSR+kD4fkARVR45UZ/i6zcUkpEYZZ8ZmamKF9//bXBSFRkTsRGyPKjD9AHYu0DiBR5/Q5FFH3Qyzdiub19uwtFefLJJ40dO3aIUlxcbFRXV4sSr38xnRNFEcVGFsvGxHPTv+gDsfMBiqjYlS39NvyyTSkRhVnyWVlZomzevNmYMH6CKO4nX1q3bCVKi/ObGXA0vNKINGyo23EcbfgOzLJj2dEHUsMHIhVR8BP3PEiHa3Fe2tTwQ7eeEQF9+qmnREEkqqSkRJQzZ84YSRGJoohKTSd3nZ5p+gF9IPF8ACLHq+4wmHntx3b3PEiHa3Fe2sTzqWjUGfwupUQUVhLdunWrKJhVf2HbdqK0adXaQCQqrWUrUVDgrZu3EAVpWGx3I1JuGvlpU7PRsd5Z7/SB0H0AIser7ALtx3HB5kN+2tDrKpXKrFP7DqK89OKLxi+//CIKFvdOykgURRQbRSo1cv6t9Pdk8IFA4ifQfpRBsPmQn5btpzEfSCkRhfUaCgsLRcGzyxkzZojSOyPDSG93oSjt0toabVq0FAWNDxEnt2C9tjMSxUbo+grT9An6QGg+gP6X5RZaubG8YlNefTIyROnft68xZ84cUX777TcDSyrFay4Ufiemb+dRRMXGmdhIWa70AfpArH2AIoo+FmsfC+X8KS2isJLozz//LMpbb71lXHvNNaL06d3bSGvdRpRQ385DflhGotj4Q2mczEt/oQ/QB+gD/vYBiKhbhg8X5f358439+/eLghfZECGKl41LJIoiyt/Oyc6D9UMfoA/QB+gDfvaBlBZRWL9h9+7doixcuNC4fdQoUS6/7DKjpb6B18BbeIEqFhGo5uedL0qg/NzPzoI+QB+gD9AH6AOJ4wM3XH+9KJMmTTKWLFkiyqGDB42kjkRRRCWOo7JTYV3RB+gD9AH6gN98IKlFlNe6DPiGTWlpqSh4drlixQpRpjz+uHHj4MGitGrR0kDlIcIEi+2uRQQK1t3PNDsE+gB9gD5AH6APJK4P3DpypCjTn3vOWLNmjShHjx41EjoSRRGVuI7JToV1Rx+gD9AH6AN+94GUFFEQV1i/4ciRI6Js2rTJwHpRKBzMicLbdYhAwfq9knl97IjoA/QB+gB9gD4QfR8YN26cKPPmzTO+++47UU6fOmUkZSSKIir6jsTGyTKlD9AH6AP0gVTzgZQQURBNWJ8B6YqKClFOnTxlbN++XZR3333X+POYMaJgnSg3EgVnwXYvi3y07GDoA/QB+gB9gD6QPD4wceJEUf79ySfG7l27RMnLyzMwBxv6I142KutEQSzB4uKRpohKHkdmp8S6pA/QB+gD9IF4+0BKiiiIKXz+JTs7WxSsF7V48WJR7rnnHuPCtu1EcSsHnx9o27qNKF6RKK/t7vmYZgdAH6AP0AfoA/SBxPGBxx97TJQvvvjCOHzosChYzBtBG+iOeNmYRqLwR1BEJY6jslNhXdEH6AP0AfqA33wgqUUUxJKXEqyqrBQFi26eOHFClHXr1hkPPPCAKBec38xA5AmViAgUrFfEyd2O42nZIdAH6AP0AfoAfSDxfKBb5y6iTJ8+3fhuyxZRcnJyDKxDCR0SbxuVSBQumiIq8RyUnQrrjD5AH6AP0Af86gMpKaJcMYU01ovKzc0VZdvWbcbzzz8vSkavDAOFhsiTa/1a2bwudkT0AfoAfYA+QB841wfwhAk2UBmlt20nyiX9LzZmzZwlCuZUIwLVVG/lIXgUk0gURBN+BGmKqHMdK5AjcT/LjD5AH6AP0AcS3QcgnmAD/T0pKaJc0QTxBIsJ5pgbtWfPHlGwAunQoUNF6Z2RYXTu0FEUzHVCoWMFc1hsp2VHQx+gD9AH6AP0Af/5AMQTxJFXHWF/n4wMUe4Y82djwQcLRDl06JCBCBQs9Ee8bVQjUbh4iCbXUkT5z7G9HJnbWVf0AfoAfYA+EC0foIiCQgrCuuIJh2A7vnFz+PBhUZYuXWo8/PDDolx7zTVG544dRUElIvIUrMVxtOwI6AP0AfoAfYA+0HQ+EKyIuqh7d1GGD7vZeObpp0X58osvjVOnTonil39xiUThj6WIajoHZufBsqcP0AfoA/SBpvIBiigooRAsRJNr8QwTinLz5s2ivDF3rnHryJGitG7ewkDkqU2LlqIgDdv8vPNFgXNgOyy207IDoQ/QB+gD9AH6QPx9ACIK1q0DbM/o2VOUCfeON9577z1RduzYYWB9qBCkSEyzxiQShSt2xRPSFFHxd2DXYZlmHdAH6AP0AfpAvHwAIgnW/V1sp4iCghIRiCYvm5+fL8revXuN//znP6JMmjTJwPpQHdPbSw3p0jE9vS7ihEpgxIkdAXyBlr5AH6AP0Af86wMQS24dYX1IrAv15JNPirJ69Wrj98OHRcH6UPWkRpP+t0kiURBVFFH+dXTXwZlmXdEH6AP0AfpApD5AERWG5oNowqFIl5WViZKVmWVs2bJFlOnPPWcMuPhiUXpd1NNARMpr3ahIK5fHs4OgD9AH6AP0AfpA/H0AEagbBw8WZc6cOcb27dtFKSgoMFIqEuWKJjdNERV/R2XnwDKnD9AH6AP0Ab/5AEUUFFIIFhPMi4uLRfntt9+Md95+W5TbRt5qXNK/vyhuJAoRKXdOFLb7zUl4Pey46AP0AfoAfcBPPoDx08sGe60Yd10b6HjMhbpu0CBR7r3nHuOTjz8R5dDBgwYW64ZuCEFqxDRrTOdEBbpyFAZFFDuVQA2N++kj9AH6AH0g+j7gJZ6wPdgyd8UT0oGOp4gKpJSC2I8VzE+ePCnKqlWrjL9P+bsot912m3HB+c1Ead/uQiNQ5XB/9Bscy5RlSh+gD9AHkscHIJaw3iIstqOu3TS2Qyx5WeTzspcPHCjKmNGjjZkzZ4qC9SNzc3NF8eu/Jo1EoVAoopKnQXo1FG5nHdMH6AP0Af/5AMQRxBMstqPO3DS2e4knbEc+L0sRBSUUgsXbeTgE6cLCQlF27dpl4KvNWDeqV8+eouArz16vSnpVFrf7rwGzTlgn9AH6AH2g6XwA4gjiybWoG+RzLfZDNLkW+70s3sabOnWqKMuWLTP27dsnCt7Gg06AbvCLbZJIlFsYSFNENV1D8nJwbmed0AfoA/SB5PUBiCJXPCGNukc+12K/K56Qxn4vSxEVRTlYXl4uyunTp41vvvlGlJdfftm4+qqrRMFEtE7tO4jiVTncnrwNn3XLuqUP0AfoA9HzAVccIY0yRhriCmlY5AvW9snIEGXUbbcZb775pij4Rl5eXp4o0AVRlBpRPVWTRKK8/gIUFkVU9BpGsA7NfCxz+gB9gD6Quj4AMeRa+AS2U0SdrWCaVEThMR4uCetA4Bno/v37Rfn444+N8feOF+XKy68wEInCHClUNm3qdgSse9Y9fYA+QB+Ivg+4IsoVU8GWOeYy3zJ8uChTpkwx8O3co0ePigI98P+3d+7PWVR3GP9LWqVy91q1RSjaWrR1cMaiSbjYKl5QBLFoRx2xjg4SLo6iQ6BSRat0RB0ckQ4gJBKKoIOI4oURb0iCFy4BRTQmEdFv53vCE8JpXngD2Tf77vv54Znve3bP7r77nGfPefbs2bOaCkk+IW0RE3VC14stXzGRD+7RABpAA2igGDSAierYvnWriYr/knqm5Dx3795tjtdeey2gqqrKHGPGjAk4b/Bgc6gnSg63GATJf6TiRANoAA2ggUJrQGZIx9UA8FxR+bSdopZ3NmpKg9tuvc0cegt/48aN5tA38mJ/kNY0JoqeKAbmowE0gAbQQIloIDZBucyTlsskaTtFLe9sxEQlaAfVE6VDNDY2mqO+vj5g+fLl5pgxfXrAiIrh5vj12WcHaIxUZwuV/NwNogE0gAbQQCloIDZBMku5YsxJnK9Xj1+YI14ebyfzpCdJc+fONYfewt++fbs5WlpaAmI/IF+QtpjKniiRhImiUosvRNJoAg2gATRw7BrARMlhdE1MlYmKT0mj8+NJOPV150l33GGOi4cODTjj1NOsPY7mjLkQj/1ChDu4QwNoAA08FbfmAAAQuElEQVQUnwaO1USpPVXPUxy1XjHWhnqiJk+ebI5lS5cF1NfVmaOluTlAn4GL/UBa05ioEnkOHguadPFVfpQZZYYG0MDxagAT1bV2LNUmSqeqZ6N79uwxx+vr1wc8/tjj5hg/blzAkPN/b45T+vUP6NurtzlyOePjFSPbU6GhATSABtBAKWhA7aiieqKUjjmQWbtgyBBz3DlpUsC/5883h2Ym37dvnznUzqvdV8y1XOu7O2Ki6InirRw0gAbQABpAA0fUgMySIiaq1b4VhYmS09y/f785djc0BGhU/2Pz5pnjhrFjAwYOOMcc6olSVOHHMXbQpLmzRANoAA2ggVLUgHqQFPPlQPkVT+7T1xw3jh8fMG/ePHNs2LAhoGHXLnPoc29p73GSD4kjJurEHkd03/kKiHxUuGgADaABNFDsGpAJUsz3fJRfERMV260UpTWPhOaVWL16tTnmzJ4TMObaa80xeNCggH69+5gjV49UviIhHxUkGkADaAANFLMGcj2JkfmJY3yu8fr4G3paP/b6seZ49JFHAvTlkR07dphD7Xix9kDJEhVVT5T+tMjHRFGZxRc4aTSBBtAAGsitAUyUnETXxKI0UXKumoyzbmudOaqrqwMeuP9+c4waOTLg1P4nmyMWj9JccLkvOLiBGzSABtBAdjSgdk9RZaseJEUtj6PW54rXXnONOR5++OGA2pW15vjkk08CmpqazKFv5HaNlem+vWCiGBPFmDDeykEDaAANlIgGZJ4UZZJiU6TlcYzzxWlMVPcZuk4fWTOa66vPH3/8sTmWLFkSMLVyqjkuHzUq4LzB55pD4lGMRUI6O3ddlCVliQbQABo4pIG43YtNkNLKpxhzqHxafs3VV5vjH3PmBLz00kvm2LJlS8DXX39tjqz0QMmwFGVPlP48JurQhSEhE+EEDaABNIAGcmkgNkUyQ3FUPsV4f8qv5ZgoOZMiiBoTpaj5o7766itzbNq0KWDRokXmqJwyJWDkiJHmkCgUJQIiFQ8aQANoAA1kWQNxuyczpKhzV76jTaqpt+HVA1VTU2MOPRnKag+UrFJR9kTJPClioqj0dOET0QIaQANoILcGZI7EkcyTopYrHyZKdqnjWJQmquNTsbZ5J7788ktzqEdq8eLF5pg+bVrA1aNHm2PwwEEBEg0x94UHN3CDBtAAGih+DcgcqSxlnhS1XPkUzzj1NHPo27T6QsjcuXPNoTFQ6oHau3evOTTsJmtjoeRDMFEDB/FWSom8laLKgVj8DQFlSBmigWPTgEyR+JN5UtRy5VPERMk2HR4zZaLkeJubm80Rj5FSj1RVVZU51CP1m4EDzSHxEI/t4oQ3eEMDaAANpFsDMkUqJ5knRS1XPpmnS4cNM8eE8TcGaCby2tpac8Rv4ak9Vg+U4uEWpPhTmKjRo4OBwkSl+8LXhU2knNAAGkADx64BmSNxKPOkqOXKh4k6stHLlInSqcrx6vMwejvgvffeM0ftypUBVbOqzPHXm24KUI+UosREPPYLFu7gDg2ggTRpQOZAUf8tNhFarnxx1PpiizoP/W+dt6KWn37KqeZQD9TEiRPNMW/evAB9C08zkaudVfsbR70IpnY6KxEThYniMSZjwtAAGigZDchEKMo0xCZCy5UvjlpfbFHnof+t81bUckxUfjYvUyZKTlfPYn/44QdzaAqE77//3hxbt24NWLNmjTke+ecjARMmTDDHBUOGBAwaONAc/fv2C+hxwonmkMiIcIEG0AAaKA4NyDzEUeUXmwgtj/MrfbT1yhdHbZeWqPNWPOuMX5pDPVB/v/NOcyxYsCDgzTffNMfnn38e8O2335pD7a7a4TjmZ0mKLxcmChOFKcQYowE0kHkNxGZGaZkZmQilFZUvjkdbH+dXWtulJeq8FTFRnTNymTRRehYrZ6weKUWNlfrs08/MsW7dugA57bvvvtsc5WXlAXHPlLo503IR8D+K406YcqKc0ED3a0BmIS6L2OQoX4+f/dwcSms75Y+j1qc99unZyxxqz3533m/N8efLLw+YWllpjhdeeCFg48aN5ti5c2dAU1OTOdTelkrPU2yxMFGYqMzfgaa9MuP/dX/DShmUThnEZkhlLzOktPJhojBRsXFqn86UiWp/Yv5bzlhOWTHukZKzfuutt8zx3MLnAqZMmWIOOfM/XvgHc+jtvYEDBpjj5L79AnTxEUunQqasKWs0UBwakEnSZ0wUc5WfTJTWa/s49v7FSdYRtH9Fbaf9dVdUD5Tar6EXXWSO66+7LmDmzJnmWLZ0WcDmzZvNoS+BaGyx2lfFuP0tlTQmqqWlrXsSE1UclWF3VT4cF32ggeLVgEyMTI1irjLFRGGi8jGCqTJRcrRHi/mc2JHyxPvX2Kl4hvPq6mpz/OvxfwVMnjzZHGPHjg24cMgQc6hn6tdnn20OeqaKt6LNVaGynDJFA9nWgEyWokyWopZLB0rLbOUbtX13xREVw81x04QJAffdd585nnnmmYDVq1eb48MPPwzQ/E9qU+P2U8tLNWKifvqp7dVMTFS2K8nuqrQ4LrpCA+nXgEyRosyToparLJXO1zwpn7bvroiJ6lq7lyoTpVOLnW6utPIfa4z3qzFTjY2N5ti+fXvApk2bzPHiiy8GVM2aZY7x48YFSJR6xqxnzorddbFw3PRX3JQRZYQGikMDMk1xlDnSAPQ4an0cky53tT966+7yUaPMcfPNNwc8+uij5li1alXAB+9/YA6NEVY7qDHEamfVbipd6hET9dNP/zcAXeLBRBVH5ZZ0ZcT+0QEaQAOxeVJa5ig2T0prfRyT1hQmqjD2LpUmqjCnfugoctaKWvPjgQPm0DPhjz76yByvvvpqwMKFC80xZ/bsgEl33GEOvc2nOwCNmVJPlcZOaX4OxlBRQSddobJ/NIYGWjUgMxPzIVOkx3e5ovIpaj/ar8xTrqh82q6ro9qdMWPGmENjefXNu/8sXmwOzTz+6aefmkMzj+uJjNpB4pEZwES1mwoBE0VD09UVGvtDU2ggXRrIZWJkinKZJy1XPkWVr/abyzxpufJpu66OmKgjm56uXouJyoNRvb0np675MvT16tdff90cml+qsrLSHFdecWXAOQMGmKN3z14B6mZVVI+UeqgUNf2+eqqUv6svOvaXrkqe8qA80EByGohNjMyR5npSWiZJ+eOo9cqv7RW1XPkUO1u2qvfjqP2ondATj3E33GAOPSFZsmSJOTTjuL55t2/fPnPoCx5q5/JoEsnSjgFMVDsycv2UuDBRyVVsqhCIcIwG0ECSGpAZ0jFkdnKZH+WPo0xRvH2u/Si/jptvjM2T0toeE5Wr5S7MckxUJ3iOnxVr5tY9e/aYQzO71tbWmmP+/PkBDz74oDkmTZoUoPk5rvjLX8xx8dChAboYdJEoqidKPVZK6yIi0uigATSABgqrAZmqmHeZJcV4fd9evc2helxR9bvaAY2hHXL++eZQO3HV6NHm0Ft206ZONcesWbMCnn76aXOsXbs2YMuWLeZQJ0DcjnWiCSRrBwxgojogJdeiWHyYqMJWWnFlRBr+0QAa6C4NYKJytZSltRwTdRzlrcd83333nTn0Ft+OHTvMsXXr1oB3333XHP9dtSrg2WefNYd6qHRHUV5Wbo5zBw8O6N+3nzl6nHDiYci30ojvcHSno+Xq6SK2fs0cHuABDWRfA+oJimO/3n3M0b9Px1D+No2c1NP6nNSz7QPu8WO9k/v0NceZp58R8KszzzLHKf36B8T1uHqgtFxjnPTE4vbbbzfHnDlzAl5YtMgcelv8/c2bzaExTxq7q/ZJN/3xC1TH0QSyqZlhoo5DBpio7Fe4bRVmT84VLtBAFjQgMxRHTNRxNIYlvCkmKsHCj02Weqg0A7ruIJYuXWqOJ598MuCBBx4wxz333BNw2623mWPixImHQd/wu+aqq82hOxbNTKuZ1Msuu8wclw4bFqB0RVm5AThAA2igtDRQZhVljtZyH15eYQEVFTa8osIqystbEfKUWXlZK1q3KWtbP2L4cHNcNuzSgGGXXGKOPx3EyBEjzDH6iisDrr/uOmsPvUX3t1tuMcddd90VMOXee83x0EMPBTzxxBPm0PxOr7zyijn0bbuGXbvMoR4ntTvqcVJMsKkr6V1johIsfolZ4sZE0Vip4iaiBTTQXRrARCXY7JXcrjFRBSjy2Ezpbb6dO3aYY9u2bQGaEV1jqDZs2GAOvWWxbNkyczz//PMBC55aYA7NRDu7qsocM2fODJgxY4Y5plZWBqhnS29zEFvfaoEHeEADaCBfDUyfNs06xnSbPm26zZg+I0D18OzZs82hb9U99dRT5tCYpurqanO8snZtwBtvvGEOve2t+Qg11mnXzl3m+OabbwI0z9P+/fvNoW/d6UUo9UQpFqDJK6lDYKIKUNyYKCrofCto8qEVNJBuDXRsoNxYYaIK0Jym7hCYqG4oEt0RyFzpDkJ3FE1NTebQjLINDQ3mqKurC/jg/ffN8c477wSsX7/eHGtefjmgduVKc7xUUxOgO53ly5ebY8WKFQHVK1YYgAM0gAbQwNE10FZvHuw5Ur1aU11traixmuoaq6lpxapVq8yxZs2agHXr1pnj7bffDtCTB/Uw7d692xzqYWpubjaH2gl6lrqhsc7jkJioPEjq6iyYqKNXWFTqcIQG0ECaNICJ6uqWMBv7w0SlqBxlrvRMWz1TjY2N5lDPlOb/2N3QYA4NWNcdjb7Kva1+m7VHfV2dBdTXW319/WHr2ufj9+G8wQd8oIEsacDrvnb138ExqRqbeqislU/xIAcH86ue9bq0I2j9F59/YY6dO3cGqMdp79695lDPk15A0pOJXD1QKWqy+CvME5UuDWCislRRcy6HGiO4gIs0aaBjU4SJSld7WCz/hp6oYikps0PPxg8csB8PHGhL685FM9J+39JiDj1T1xgr9Wiph4vY0vYFc7iACzSABjqjAdWz2kb1rWJLc4sFtLTyqvpZTxrinibGPBVRY9zur2Ki2pGR9p9tFx0mCvNzsGJWBU7EAKCBwmoAE5X2FrMw/w8TVRieC3IUPQ5U1J0N8UeDAzhAA2igKzWgejaOOka8PE4XpFHgIIkzgIlKnOLCHSC+SHUxE2k80AAaQANdq4G4vlVaPCudKxauZeBISTKAiUqSXfYNAzAAAzAAAzCQWQYwUZktWk4MBmAABmAABmAgSQYwUUmyy75hAAZgAAZgAAYyywAmKrNFy4nBAAzAAAzAAAwkyQAmKkl22TcMwAAMwAAMwEBmGcBEZbZoOTEYgAEYgAEYgIEkGcBEJcku+4YBGIABGIABGMgsA5iozBYtJwYDMAADMAADMJAkA5ioJNll3zAAAzAAAzAAA5llABOV2aLlxGAABmAABmAABpJkABOVJLvsGwZgAAZgAAZgILMMYKIyW7ScGAzAAAzAAAzAQJIMYKKSZJd9wwAMwAAMwAAMZJYBTFRmi5YTgwEYgAEYgAEYSJIBTFSS7LJvGIABGIABGICBzDKAicps0XJiMAADMAADMAADSTKAiUqSXfYNAzAAAzAAAzCQWQYwUZktWk4MBmAABmAABmAgSQYwUUmyy75hAAZgAAZgAAYyywAmKrNFy4nBAAzAAAzAAAwkyQAmKkl22TcMwAAMwAAMwEBmGcBEZbZoOTEYgAEYgAEYgIEkGcBEJcku+4YBGIABGIABGMgsA5iozBYtJwYDMAADMAADMJAkA/8DqAJ1VprP96sAAAAASUVORK5CYII=;" vertex="1" parent="WIyWlLk6GJQsqaUBKTNV-1">
          <mxGeometry x="99" y="375.34999999999997" width="90" height="89.24" as="geometry" />
        </mxCell>
      </root>
    </mxGraphModel>
  </diagram>
</mxfile>
